<mxfile host="app.diagrams.net" modified="2022-05-27T00:34:01.875Z" agent="5.0 (Windows NT 10.0; Win64; x64) AppleWebKit/537.36 (KHTML, like Gecko) Chrome/100.0.4896.88 Safari/537.36" etag="H3VDU_-stk1IAyFtIO-7" version="18.1.3" type="github" pages="2">
  <diagram id="OPLSTaAaEjpptsxYEgtz" name="Page-1">
    <mxGraphModel dx="1422" dy="804" grid="1" gridSize="10" guides="1" tooltips="1" connect="1" arrows="1" fold="1" page="1" pageScale="1" pageWidth="1100" pageHeight="1700" math="0" shadow="0">
      <root>
        <mxCell id="0" />
        <mxCell id="1" parent="0" />
        <mxCell id="nryWLB2QJNSPuGqSHJUb-2" value="" style="edgeStyle=none;rounded=0;orthogonalLoop=1;jettySize=auto;html=1;" parent="1" edge="1">
          <mxGeometry relative="1" as="geometry">
            <mxPoint x="380" y="268.7481818181818" as="sourcePoint" />
            <mxPoint x="450" y="268.1118181818183" as="targetPoint" />
          </mxGeometry>
        </mxCell>
        <mxCell id="nryWLB2QJNSPuGqSHJUb-9" value="" style="edgeStyle=none;rounded=0;orthogonalLoop=1;jettySize=auto;html=1;" parent="1" edge="1">
          <mxGeometry relative="1" as="geometry">
            <mxPoint x="380" y="297.7481818181818" as="sourcePoint" />
            <mxPoint x="450" y="297.1118181818183" as="targetPoint" />
          </mxGeometry>
        </mxCell>
        <mxCell id="nryWLB2QJNSPuGqSHJUb-10" value="" style="edgeStyle=none;rounded=0;orthogonalLoop=1;jettySize=auto;html=1;" parent="1" source="GeeqB23RC3CqzmivtxCw-1" edge="1">
          <mxGeometry relative="1" as="geometry">
            <mxPoint x="450" y="283.1118181818183" as="targetPoint" />
          </mxGeometry>
        </mxCell>
        <mxCell id="GeeqB23RC3CqzmivtxCw-1" value="Process Stream" style="aspect=fixed;html=1;points=[];align=center;image;fontSize=12;image=img/lib/azure2/general/Log_Streaming.svg;" parent="1" vertex="1">
          <mxGeometry x="340" y="260" width="40" height="47.86" as="geometry" />
        </mxCell>
        <mxCell id="GeeqB23RC3CqzmivtxCw-7" value="Siebel.Site" style="sketch=0;outlineConnect=0;fontColor=#232F3E;gradientColor=none;fillColor=#3F8624;strokeColor=none;dashed=0;verticalLabelPosition=bottom;verticalAlign=top;align=center;html=1;fontSize=12;fontStyle=0;aspect=fixed;pointerEvents=1;shape=mxgraph.aws4.topic_2;" parent="1" vertex="1">
          <mxGeometry x="629" y="165.35999999999999" width="22.61" height="33.28" as="geometry" />
        </mxCell>
        <mxCell id="nryWLB2QJNSPuGqSHJUb-6" style="edgeStyle=none;rounded=0;orthogonalLoop=1;jettySize=auto;html=1;" parent="1" source="GeeqB23RC3CqzmivtxCw-8" target="GeeqB23RC3CqzmivtxCw-38" edge="1">
          <mxGeometry relative="1" as="geometry" />
        </mxCell>
        <mxCell id="nryWLB2QJNSPuGqSHJUb-7" style="edgeStyle=none;rounded=0;orthogonalLoop=1;jettySize=auto;html=1;" parent="1" source="GeeqB23RC3CqzmivtxCw-8" target="GeeqB23RC3CqzmivtxCw-39" edge="1">
          <mxGeometry relative="1" as="geometry" />
        </mxCell>
        <mxCell id="nryWLB2QJNSPuGqSHJUb-8" style="edgeStyle=none;rounded=0;orthogonalLoop=1;jettySize=auto;html=1;" parent="1" source="GeeqB23RC3CqzmivtxCw-8" target="GeeqB23RC3CqzmivtxCw-41" edge="1">
          <mxGeometry relative="1" as="geometry" />
        </mxCell>
        <mxCell id="GeeqB23RC3CqzmivtxCw-8" value="Siebel.Account" style="sketch=0;outlineConnect=0;fontColor=#232F3E;gradientColor=none;fillColor=#3F8624;strokeColor=none;dashed=0;verticalLabelPosition=bottom;verticalAlign=top;align=center;html=1;fontSize=12;fontStyle=0;aspect=fixed;pointerEvents=1;shape=mxgraph.aws4.topic_2;" parent="1" vertex="1">
          <mxGeometry x="629" y="267.28999999999996" width="22.61" height="33.28" as="geometry" />
        </mxCell>
        <mxCell id="GeeqB23RC3CqzmivtxCw-9" value="Siebel.Other" style="sketch=0;outlineConnect=0;fontColor=#232F3E;gradientColor=none;fillColor=#3F8624;strokeColor=none;dashed=0;verticalLabelPosition=bottom;verticalAlign=top;align=center;html=1;fontSize=12;fontStyle=0;aspect=fixed;pointerEvents=1;shape=mxgraph.aws4.topic_2;" parent="1" vertex="1">
          <mxGeometry x="629" y="360" width="22.61" height="33.28" as="geometry" />
        </mxCell>
        <mxCell id="GeeqB23RC3CqzmivtxCw-15" value="" style="group" parent="1" vertex="1" connectable="0">
          <mxGeometry x="41" y="260" width="60" height="60" as="geometry" />
        </mxCell>
        <mxCell id="GeeqB23RC3CqzmivtxCw-13" value="&lt;br&gt;&lt;br&gt;CDC" style="whiteSpace=wrap;html=1;aspect=fixed;" parent="GeeqB23RC3CqzmivtxCw-15" vertex="1">
          <mxGeometry width="60" height="60" as="geometry" />
        </mxCell>
        <mxCell id="GeeqB23RC3CqzmivtxCw-14" value="" style="shape=image;verticalLabelPosition=bottom;labelBackgroundColor=default;verticalAlign=top;aspect=fixed;imageAspect=0;image=data:image/png,iVBORw0KGgoAAAANSUhEUgAAAIEAAAB6CAYAAACY9TCKAAAAAXNSR0IArs4c6QAAAARnQU1BAACxjwv8YQUAAAAJcEhZcwAADsMAAA7DAcdvqGQAAGBPSURBVHhe7b35lx3XcecZb3+v9sK+LwQBAiIJggtISiRFkTK1WLbbntN2z3J8us/4zHh+88/zgyX9IXM8P/T8MuPptq1uW5YlkxJFUtxJEAAJECBA7Euh9qq3L/P9RGS+qgJBEUCZVnu6o+q+zLx5l7gRcSPiLpmZ6XQ6Pftv8F81ZJPjf4P/imGVmiCTBLOVhegqc4tib47yNGmkyukhkxzTUpdDT3Hdfh7/y2Q8ttdPnN5LzwOS1P2r5fcAskcR6Vkm/pSMo8epkv65Q8StBMfGj8vbv3QW+PbLyKg93PUEilN7oszkPsXEWUD/ggxLpa4WViEESYOS3H5Icf8cZJeidSYidTNtsbWj+Kz+8taTEPQ6UWZOhyzJ0iydru63LJvrWiarXN2WtZWrlyspUVbpVJ7KIiyJgfIkoa2/jgJnXAdePdWas4J+wQA8UI5ZxS0PxPXIItwyuiZdDuQS7OCdFwe45AiHTksX1O2RwrtgHbW7TTnC10kgjLJZ2g8orpf3Y1pWCOFKSK+jShIkiVcBqxOChNsUsMR4gc6DESH3N0MmEYIexII1HTGmm7NcrijiQmRBglWcd60rpvesofsQDuIGSyE1x0avYfP1WZucvmETk9dtanbSZuambbGxIOI3rSWmtBCcnlL3OhRqBTGmLCHKZfJ+XilWbGxk3Das3WTrxzfaxtHNNl4eFw7BHAQVoei0Owq0TXmzZeGte7S5o3JVtpogPhOhNnZpo04zOR1pt25mxXDHoK0YWsAVzKce3U+JuYwGScyyIxRWgjRiFbB6TfAZALEEwX4Kfpel7deoVDAYYqnhGQRABCKpYvUHs+gpHCFWU2SrWbO3qFC1Szc+tbOXPrapmRs2NT1l89V5a7abIVxStdm8eqDo2tV1aAjMif6pwrVHwbK9go4k0n9LqVpCTj0+B8MlmIPFIdu8Yatt37LTdmzdZRvHNlolW/G8PasolHUuAfY/Fdx15NU0netORmoiBELFdtFiYreEpi2BQQhyuYQYznjyKKRmMQUl6V95z/cKuEjC6mBVPoFnXI6DR/Bzs3jcAlkl63WVTkSCKID6l7Wk8jv0VtSkGAmhmla1em/eZhYn7PzlM3b209N2+dp5a3RnLFNsiH5tLz4rG0JHg1CIUCbb817ZUe/kL4QgUdEk7KrejgxCtiBtoHMYiMrvBUvzWWkm9c5GrWW1xboEJmtjo2tsx7YdtmvHvbZr/QFbU96qqosqGXWOnihKPCqWz0j9S6BQOnmEkeJVfcftSgTwo9olSOjUV6vCJTkLCNqGIHDKXQpYmepOYRVCQLYgagDIJ8cUeUfy8xBM0ikP6rndbQbj84oQUztifUfqf7IxYScvH7cTZ47ZlRsXpd7n1O6elSrqyTml6dV0HTikTKbnIViuTVwd65iYANdQ9E6ET5wBC/iiZH50pS+hyMs8tBrKK/kqy0zQ23syAe2WvAuZg5wEpJIds+0b9tqh+x+33Rv3SSeMqbSSSqgodUnEVfnIp6rMYQUQUFWC9kMAwENKMAFO0gD0byhd/8dhKUvqx3wejW8PVikEohxCoNMlmRVSqHauV6g1EjkL+tBzMyCiSF2bBKCXhfkNmxXjL06ftSMn37NTF04qZtG6hbblyyq1IB9AnGl3JDQSHPyDQkGqWwxF3bZl+2E8EGo/6nHgWumc+YrvKH9H6V0gCI574B8BIoO/mAWKmBAFNBjmItMuWLsGo4s2NrTR9t9zyB6690nbNLJLJZWVoqiA8KgI5c/J6qD+e/KBXOLki7gP4MA1eOvoVOJ6iVpxhglOG0XkfyFC4MM2gTt7jlBCSBBbXrJfKsIbpjMJT0tMQADoJfT8ueakXbjxiZ04e9ROfnrUqp05Kw7nrZVpyCMQwyQkCIG6qkpQga6+qU//LlBRNsFtMcQSdCUcaVgCMbKoIM3j2oJ7CK+YnMU30bEjV74rhgOgXcjLbIiTVIMg0JlzXXwHqf5GXqFgw8V1dt+ug/bofU/ahtGtEoKyleU8Un5GjM/LDHHsiuz4FRmcFsr3XxiPICTCgOlyeiXMV/B2p6EvpKuDVZsDFwKdukQ68znehBj46gDjaSQN8+FcRvYfi9+dt0+vnbIjx9+yMxdPWF3MLwyqx2frCk3LSQN01eOb9FyIIlVPfRk5bqaQ8jZHLxfzYLba5T0+j4SB4s2tFJod+R9oE2QFxoeGQEVr7OGFqhYXiIgjpMKEr1dAGDV0xfaXsgPuC7SrYkuzZCOlNbZv5/126MBjtmV8u+6VvPMX9Ie5cX9EAoSZSQFWO7IIAbTiXO2F8T21K1IgCCEMkILY1cKqHENY64jTgxCAlPnLSsQLpp25YtYarbpudaS+c2K9vHw5fOcmT9uvjv7SPj1/SnfqlivhFDZELanMXNs1AMLjgqPiETvnGkfVk9ToAFHieuk+x9BSy1OmAPbpvZX3yRq90PXXittxDSYM8ejhulT7cRxzHTFZIdcpWnO+ayPltXb4oa/Zg/c+amPl9SIFZqIkPstM9GQupNooGiF1LFQY5qInG4JvQwD9JU0QAkAc9XKVYHTXsDohSBAHI/4+gw94SwDaGp8zqs/kmKrRmB0rr97+9sev2lsfvarx/YzStq2kHp8V81vduhw5vH6Yr5BUFAwLYgTQY1CdAk/i2CRAhgSvJP5mYehpFOAIKi5hdQCM8CPF6i+9dqAirpJA/erizhpduolgdKFRRyU/7JqhOd+ze7ffb4cPPm3bNuyR1hiWPhiSGRlQFdINaCDlw8R02+EvZKXBssnQEqGP7kZQVBrtIY29e1ilJgDASKR27AIxwAsVfVvdhgtANt+V2p9zDXBJw7tX3n3JzkycsM5AzTIl1J7Mg1QzUz940e5Jq5fhOEa51ENkKgQwB9e7paAEfYYnkORZwfgVQpCex/UKNivKr1Wux6bXcRXFcOSGnyOICELMaSAIWamtVq1rldywDebHbGaiaaXMqD3x8LN2+MBTNlAcV56KBGJEmkFmgTxoEpWQFB8VRZVRe3KZHkn3X4AQBBrg4EKwDEC01UOVt+TYVcX6edn3mn1w4h177Z2Xbb41bb1B3a9I9UtAOlKBXTx11CvF0jgVio2nsCWfA8ZyJBohgAFROQxfRkJBgp/D8vPlQN4l5GH2khnQUVn87s0NFDBGCDWN/Q5cMsIpI90OLtj+dqNnLWmDUZmCgfy4LUy3bbA8Zs8e/pYd3P2EawSEmmEn/kI5X3ZN0oMt9A1picBGkODiQqDgAkBd3FsFrEoIIiMowBi/cHD1KWLg+LU0vMPWX529YL94/6d26vwx+UMNyw+ojcWWVdsLPuQD8mpwzMmrjKS1Sw2MejzoXhqf9oJbkyLNI4BqK9JQCAKk4E5YCl6x//Wz8pMIxhLoZt+ckBrTFWVF71QnaEkrOGMHfATRa+Wt20D15218aL0dvPcJO3jP4zZewlfQfeGY65V0VhRqzD/Gn9ecoB/n0Ne9Ixc2jquBVQqBskIcRyRQcfKh2iUAbTl+CMDZKyfsxXd+bBfkBGYHNLYvK7ajsT+TPuWSNVt46WgANdixkaUsiBD6Y54+qcmJ0Iek6qg3DUvg6fuwdL9fjvegRADSxCmj/RjQb+MKSK4lBH2tRFC60CJxzXQ46xLMPrabCETWJ56yoldjsW0D3TW2f/vD9tiBJ23rml1ifkWZZBoUCpmK8jKK8OKiRuEdflKMsBAATIjfWAWsQgggDwhF9j6JIYSIy9CvKwfwreOv2N+/9jfWzM/a0Ia8NbJzttCa0ngfVZ8XcdAARR9/o+5bLM4IJR+vM53stiGtK60DyqREuDUBUqIF3NpyRi9SHf0ykhRpPQr+279eAqKyLkiKVwI/Q4hVnruJwjsj/H1tRGYuTwYYKCeZ81KubM0pjRWaa+zAPQ/Zg/sP2Y51e20ou0aM1+hCIwgmm3xIJHAcXAA0ckAIqFFCmPVFp0hztyAhYMXETxU+K1UJGaKxDkv3PcaFQMiJ7SwNywI685n5e/PYK/basV9YK7dgnWJNMfNW685ar4jzp5JlBfIMkyQEEFBDbmkEyox5gCifn6QOnTs+IkZqC2FkkqgPaT6OSwyMlvTL0w0ImBHBo90p6F4i2AGR97NA/TiBjnDCeHBeFoQjM5v4NoUiZgMBb6qHqzwpoUpm2LKNsrUXs7Z7y3321Yees3s3fMWKPfkJDDV7Gk6KNgHC3zUsQpB2AkwLQ8zl+N85iJbyXBzyjrh++sCpT5hBdLB2SIguBDrNsEtM96L+MwVMwKL+puzn7/2Dvf3hq5Ypa3jIHH9WwuFqTA1wIkNEkS6pLw4QjxKDiAFeg/+SyI8J4DT5OFrE9kkcMcTRdSFSymWZUsL5NHVPxFQ0vY2ALfZpY8blSutlMbVLvRSTCNxKoFwEC+GkVo+JOpcJpud0beYXguTcc6ozqM5ct2xWLdmGgZ329EE5jDsel3AINwnBQHHQU/vMJfVpmM1EGxAeAxNOaZkrIZ3g+iJQ++qUrtNbCIHOnXQuBMHwAJ1JCFDF9ZrG9Kzvlxpq0ry8gCn76Vs/smNn3rb8cM/qvYVlzCcvdURJ0X+YcIGYSQ0iWJAcIYh04ASduVpyhKRzum05lUw7y+rKnPgyNHcYb3tAKCKztyGKF9AqotWLUKe0mWS6KfmJNAnjfeoZQtxEUJ9F1DEt3wvoB8ArcgiBRrCBaJcLT0F0yWuI2xIt6xWZhmHbMnyPPbz3KXtgx2M2nFsjh7IkdKVFVBwLnyE6DKV7VsyxWPVPIgRLmiCGYAFpc6KMuIqqIEpSqQ6oJ3fyMnWrdqfsJTmAH5x+09qFqtq2YJmSeh2LQ04o8qmOpKdgU4M0TkqVEfEeo1NqTJkP+LF/rbzS5PhOzMtjRjpifOAb5iSfz8vsKHXSs30Y2kULCB9phEJepignU6S8ECs0icqldzJZA6OJl4/iQtXXNGgO2rHUFvBZEoZfD55KaTvqPPwxT1BGI1WlXWeztm18jz376HfsKxKEko0Lf+HYQVMpo2jZ7jaEg/KJAIw+QrA+C3cgBM0kFTYrKSyJIX+cpgWpsek9BSSym2n4NG/TFuyVd//RfvXBS1YYkcLK13wBqCtJ77oWIAfESomHJkmFIMrDBwrmx/FmWCkQrBg2rNUTQXxoqR6hrsJ0SxSpFC4USY/mTycEV/tCod0S/p2OFYtyTCUwJJSj7OsGMBwhQhjarA8kmiUKQ8QYGeBTJKbnluCtUnoFh7hGAMCKrWZQoKA6iiqzwPxAVd2xMWAbRnbbVx/4tj2w+2ti85C1GlF1uQSPYj8VPGPG8Z9ACNpJKm9dhCTGC/BC0nuC9J4a1lBPb2XmddXyGcA3PnzFshV5BZ1pObhijrRAs1v3tAEgGwLA4o+Tr1+ekysIpBBOsW56gjRRHwsBPVaOWVK2b3XzEOVTD3+wywXAUyXggqF8MlPOIN2EwakA9CQkjEyYug281GuVh16rzAkSwl9DuZwcyxgmErmiFgF4Uwc2POoK3yqEoNeTOtdQ0FjIai9YSXJYUu/u1mSaawO2a8PD9uSDv227Nz5oleywfDB2VbJwBR4ttZ+RwT+JEEjEHVmAY3ouJL1rxnkEQXK7K2ewlZ2Xxz9l7378hr165GVbbM2I8ckEUU6iWxRh1UCaHPkTBiXja8a4KXtI04X58hSjpyRHF4IAThMsBCKjmJYR09xuq2zsIz007GROvUc4inAMpdJ63E9Q6MqfyMnJKpZyli/gU0iDSKPAaN+vgOpPKnRB4Oi4IRKKV6SvEaANvF2BQ2BIAG9CImz0XB1TISBNpienT4IgbazLRVXfkGDJVLVZYlpjucZa27H2IXvm0G/bzvX7LdMWjhpCF4VHjnGmz60TqO+zcNtC0I3urmKQLkIC3gYVroDKWl6RN01moJGdsiPnX7WXj/zM5hYnZeNYHKpaDuHOsbEzVgA9q/cWVDUEE/NXCEEwG/K6kwnzPU53XAiiIeEUEqn2KxQzRd/Mhc1m7b+l0Qq7gdoNsVI0LxbkXZeHrFQs+ybScklDrpzsqISGYVtHtrXekNmqLdhidcEaLQmsCs4WhJsEA1w6ME4dzjtdHpwwFWKUsPUWOfMJMYUctErp5ZTSWaIBXAhQ47r2xlVk64syTR3LF9klJT+qLfrJ0ankRq01X7ZCa509vO8Ze+zA123T0A7LtyToEj78GYe0+lvAXQgBEooQpJlUMuIvte0NA2ePhj0Qp2YXqx/ZS0d/ZB+efd/yJRE237FGW1pAw8GeCCixVgMTDFcIQaIJFIOIeYkw23uZbus8rsmYQEiEovSnWznhVdDQKtPIW31BvkG9LdtesY0bNtvObffY1s3bbcOajTZUHlGvKktYGA5Gr3H8E2YQmNqqy2xNV6ft8rUrdu7ipzpesLnqnNopTVJgA4qS6ujDYeVl93NGw2JMUjz/EG1bWk9YQp67S0IQdEYIchnhrxGKT7FLp7a6VQmbvH75KC0N2jJNDR1lFoYyG+2ph16ww/uetrH8Bh9S+l4KqlhZ1Qq4bSFoY+xAqq+uRBgndjALxvkkjqQ/wwQPjVZDFttT9vNjP7I3T79o7VzN430iQ0SKGS2IkzISBkKkRC17uarJHTM5OdjgvJR4EQL2rN1m1ZF6VYoqZ0dPV64LoVSAmXmrzTWtOd2zscIG27t7v+3fe8C2b95lo+Vx6YaysKcOmEJLqBetE7ikNIM83OcXwYhftQMmK1ydvaih7gd28pPjdn3qigRdNntQOGIKuzVpiqpoUlcQm+VpttiGLpWRl+ZpthiN4FziM3hrk9pC8NBkPtmjP/DADKZDaQJYsUdxID9ivYWCjWU32QuP/r5GDCw6jVq2XRaD1UL2ZHoJdw+ZViIEjNdXCIH33II1m5JcTqUONRiU7VSvac3bh+ffs9c/ftGu1E7L/uP8pQ0IAaDlocq9OSpzuRCE+DLMYY8gjWgiEBK0QlHqWrau3aLHKJ2877ZUPGp9qDJs0zdm7Mb1aduyfrs9dfB527/tkI0OrLXB4rB6u3qO8tAKJ5Dwj00by/+8Oj/DmYw9BYoSLsGEJSGgxcx8zrWm7Pz1T+zYiXft9NkT1uzUbM36YSsNt63avmHztTl5+l0rDw6pz+RkXurKr57uKjvqXKo3TphpRCsgAmgOBoodaRSEAT5Qd0Y2TfJmpe6AZaUR7t30sD338O/blpGvqGWD0iTgDo0Jdw83CQGI6VLESTnf1fg0tnR1ZO8XdLdq56+ctJff/wf7dOaktQcWhDi2H6bTm8RUHQFHLVqtCxBGEBThPUC1stSsenl4A7XlGkACUFRvlzy4XS9kmDkr2vz0os3cmLNtm3fas089Z/t33W/jmS0ixXphWlJ5iK8CMizBYeEm6/v5Ug0gVIRQeu7IpSE5hPOnoITMbfhWYbWah14IdZu3K9Pn7eiHR+yD42/bYveqFUbbVhjISQAqNi+/otqoW2V4SOVkrNGUw+fmUNiBB50LDHSE7RkNrFl6RhC7aoN0nnAQB6hXNLWeOp0IkdcoxKQNSu319lWNFghDuY0+5R7rF6uDm8yBjk4UKCEBEDEhSpMhjBDO5hve8DePv2hvHPm5VXOz1h1Qr3GCIdHK7AJAIV6QfoMIIVROYQUYo/uYELetYQfbcu4adRZYeBpo0IdgnbpZdYYNGQP2+MNfs8cf+KqNlMYknnKaesNKM6Bz6el++fI1pJpx/vpoKKwgVKC2dEwhzdJHE5FGKwiJjNrv5w2bWbxhF6+ftfdOvmoXJj9WV+1YtVnz0VpGvlG9LRNRkCaQg9nG21fBIQQEOgL+kGLlXGdU7pIQFBWLQwov2IpX92GjSRMWu3IiF4dsrLjLfuvxf237dxxWddCAB2ho+93DMiFABXEUSADcwdEdV0xiFhtDepk5OYGv2StHf2yTC+etXZRwSOOF7U8p6mT0vygsIb+oGg5mQmkBI5wuD5t02vLa6bkabskO8lQQvb9bZ2tW1zaMbLVnHn/e7t/5kBXlUTP8Y6k128OxKro3zXpBWq4fFcD/8yDa6acrwKMSFP2JIZ3LrAt4KKYhCkkYvK1tm6xfsdc/etneOfamOkrNR0WtbN2yZWk1Rk9yNl02AZcqNBNCwFCWahIh0BUCgCbgHI3Kjikcz556AbuU6AS59qDV5/J2385H7ZuP/55tGdxt5d6Q6ICk3D3cQghAlm3VICMhZKZMqGUKdbtePWUvvftXdvLcryxTXlSD1ZM15MI7drL1BQGI8+XKys8TIeAuXjl1ugerhhZlQ9mA0an1bHG6Zu0Fs0fvf9K+9eTv2tqBTSqePj/kq2u+XVtCE4wW1io3rSll/ucKgeMJNvRGTvlJws15FMW+AKadGcohuBnZ7JaYw4xpLbtopy5/ZG8fed0uT37q0+Vd0SpXkYupYXKjLQ1BffTWZULgtUkA0MA+ulA8j8dGR0GbRl1NDWF5TjLPOgfDyY7aLqfw64e+bU/v/5YN9tZ7h1kNSAiYLIL5ocZRWTHMwTYh7wRJdnbe3tVI4JUjf22LnU+lAhcl7eTAGRO2OvOWJZDoAoErfr+3/JgGnhd0GsmzpkdLk1q72rWx8hp75qFv2iP7nlANOH3Dcks0zu+h/ovWkYqEXtkyREvK9h8EQqeU6deATkRYF+e+uYo2h20GaAMMSmbg1HieYeEezHBgAskjRR3FtWS7WTfFWzo/cdpekZ906uJRyw7KnpfqEhFpT/lSOJte0HIhEJ3Di0EIoJWLZKTrg+JQCsKL9MwPlPJlqy82bfv6e+y7j/z3tmf0Ee8UqwFhQi3RIzOimjsvHugBYojudTQUujxz2k5cfNdm6tddA7Di0BFyODKM6b0zLYMowy2fLpIGOnAG8ZnyFYE0jOqqMLZV5ToVa81l1NfX2TcP/Y59bd9zfl6SALDrppQdEqp5ay1CPI36fY0+emo6HnYB0BF83MFT+9IQxI77wBJWKW4IkOJ0iXVhnwvMDmeT2yKXemUmK9XNmgE9s1uSui7ZPev323ee/H07fOBpy9Ur1q0WA19X1UmnSv6i/VF3xKsywAWUEBgyQmIEw1DTd1/pb7ExLwFrSeuctVPnjok/VXXQhpx37qYtIj+CRxeGt1wr3rVRCDi8jnhh9/0f/O8/RBp9gyQxSKkaCCqscjWk7po2YUfOvGTHLr7q28M68ubb8tp7zHPLeXLSQjwdfYTjJdFMqTfsPJ66L/CoeHaSyBnM6ijfCVWkkLViZ8AWrrVs48BO+4Ov/092cNcTEowh2UIJgPyAHOpQyOP08QyDinRGI6i+E0l//iiaCNbSGB01wGPu9DcCf85I74E4Zvg8OaVXfKqK/Ziyh9boN+EPz08gbKwp0F7qZSUyr0blIarKHiuP2pY1m1Vv0W5MTGko3XJBbYu2HXWcXF51q4y8CsWr77Rb4oDK8+qizqWABlK5qh9NhEBSCZtxcKhJn5WzMjI4ZgMaOndpD4Kp23nSyJ8guBbSPR+dEU0xtNC1kyJ0FblcAnUkjpBAyFbbJqrn7eIizwTO+gYRELcMniw2TEU6zjdlTqoD2a5awiY2aiEWx4rdNVkcL5mBomxac1YCMLzFXvja92znln2Wk9c/kBmzgrzinLxP3wXk5dGjxRAdedqYOvN5GCr1rJ6Db1AsyobmpTHEhHq94aMOmorzWVBg+NiVA9rtSM0yssCm4mUjrMLVBUbleQ9sSuVr6AoDWWOgRy4sVnWPh2hYykXcs1bgUbN2XiOXtfbofU/YoweelBkbseqccGS7mExdo85IIPo9GjBXgH5fBKRIgrc90WgShGvTF+zM5Ee+kzsZiQa9QV4hxFjp9efDX10FRHwaE2LYVxOgF0wNrcHwpm2XL1/04Ejw54aKsFQs+TxvXEQ6JoJA2MWJnoT0IdnqoWwGEHGY9OjWszZaWWtPP/asPbD7oA3lR8REhn0JIl42ZYKTnzr4Y2MExRFYHGLrNsyD2DCpUim5kMQmE3BXGQoIC/MTeZirwPIy8a76/b5kXfeLxbznp0wCAjY4OOC4xAQXreNKaptH0ds5Wzu0yR6495Ddt/uAvBcNGZrMcZbVH6XNSKdKolnLGnPH0LOZ2Uk7++kpm565LhyYq0Gj00Y0FXSnfFQIzPRMt4RMu1sXXZWchrvKiN4tDS1TULeJ5jn7xZH/YEc/fdkdHp4laEuFakCsslURFavCnIKbAq8MQQoN4FpAkYgBRqYg4aEGX1poaWRR0xCvNWBPH3rBnj74ggglB9Dk/DE/LnzoZY6fQlK0cIwYxD96K8Op0AAwLoXZ2Tm7ePGSnTt3zs6cOWPXrl2zarXq91g1HB4etg0bNtiOHTts9+7dtnnzZjF40IULQjaZ7BGUSuF9Uxf1xP0QcJ0milTsVZxPn/tC2qJdWPjEXjz6Ezt58QPfecXTVQyJuzIDtAtdT1Zv0x0C/lZ3MWvj+U329MO/bYf2PGOV3rj0GsIm2vOMJQllhnkNDqM9eAN1GAn68FNtQZtLCJrSLmqcMzCcGFRHW1xqyuk4fuENe/GDv7KJ+inLSQgaDI00LMii/pzrcvASAVguBDiMyEpXjHJV5HWodwoLt7zsi1iQTzFfssMHn7HnH/+ujeQ2yk6y1VxDxeyAysMEeGn6XRICP3IiIqpID/Rk4MaNSXv33XftjTfesE8++cQWFxddQwAwHjMBI0NrMFsHI7NidMnWrVtn+/bts8OHD9uBA/ttaGiwrwEoPzU7XLPphLUUoSAhkAAoYEo63bY1WovqgCJysWGnJ4/ZSx/8g124cdqyFXwAjSfa8quYEvbxJmy5c8A/KiZ7E/dte8S+ceh3bfPwPe5gy+jpGHRJX5PDeV8IXGMw5kuFQDrMCe2SLKJCcqVsaQxbz8zaL4/+2F49/nfWLExKmtlPiDS7FQyVo5Ipqi8EKsvLUPDtU9SKIIjoIFEQUkx+dDUMbEz07P5tj9lvP/Pf2abxnSIO6A9aJc9uWxFIvAveUo8uVICKSCDjPoBa42r//PkL9tJLL9nbb79tU1NTzlxmIWE69tvrT3oxR+57Kcl5o9Hwns/90dFRW7t2rT377LMeKpWyl9FoNF3TIDA0lMEhOg5qMGvHnkvaiAltZ3iimmHivB0594a99P7f20zjmuUH1blYfJJj7ELgbLkLUD0spLfmurZezvS3Dv9r0fKwzyOwebbIDm5wcXyWwHmdDARSIcj94Ac//CEGKsatSqJ/PFlmvK7NnbMPzr5pNxbkD5RkBpjcEKdJ5zN0CYNSAfL4iHThiGEZzCMCscA9k7JiPaKWsXXlbfb1B75te7c/KCaxxWrQijmpY7x0fD6EQFLgjYC6UbSAONl09czp6Wl78cWX7K//+q/tvffe854Pk2A+zE2D50oYnoa2NAHCQdpyuexCgxAgDHNzc3bkyBE7ceKEjY+Pu9lAE4TPIfoo4Jj68FjF5xkFoXBAEw2lc3wgyisPlKzWWrCp6UlryxzQW3yDijI6He8S2BhDhR0NsUeGx2zzum0xkyonVJ5OjIZSSGjHwbso9PQrceQHkgIuVjKvJVVetzOXP7Tj596VbyDvs6LKsCNwxtmi3r+MKUslxF2YhjOIELDUyk0ExWe35Dx1FjP22H3P2OP3Pyt5HpL6H4kGdOOBFIB3/fQBYusyyqawjJ088bH9x//4V/bTn/7Urly5oh5bcUYyKoDAaa9PjwBM5x6AeSCkpiHVFqnZIFy+fNmFC79jy5bNNjIyopwqUxohp9ECgkBpvPPI1ysQXgXKYKYPvBmR8IjdlcnLNrc4bXkNcV0YdG81QsDEFX5Qq66jfLTtG3faCG9bk8PdaTHBJJ6kxSekjO4T7YeGxIg+/NBDhDvSSwLZeVYMbyxcssXGlAuFv1uARHDCAbuYdNdUMCg7va8Gsj+AsS7jYVQmPjIrX+3Fnu3YtMcO7n3URgrrfFIli3CwUUJFFZQnL5x8D4Hq9CGh1Cc4wyT+Xn3tV/Z//MVfeG+FWcEcZU96NkxIGZ8yPWUwAcEAlt9LA0A855SLqfjLv/xL+/f//v+yS5cu6Z7arnqAvBwv8GROwJueEl2k6bXUjg7bWdgvuM8e3fe4DRXHrL7Ylm9U0kjbFyXuDhAgkYs5S97lMDF71a5cuyjyiU6KZ8QjMgmJSO7AtTcvQVSdEqTl04VaSuPZUkXB0ws3bHpRQ49sQ2lpYDSahEhYFM7P8lqggNfi0FHvQicRyyZJhhyN+baVcyO2b+eDtm5sq8qSCvbNmonkRlYHBAh9wo5gdijhjDFm/7u//4n93//P/2szM7NJyi8PYDY+x9DQkPsbf/EX/6c7nLwnyUcIwrBcFENF+YbayHwIu4jpUCKvt89ttARh4/h227R2hzTegHXVU1mmXxWIsPI+1Hc6Vm8v2Gx90qeqRSVVjhAn6foAr1I+LvkjGmdgqwPIxLardk/+wOQFn4xg36BvttB9KVj9kDG1/4pNbf5SKQqRzl/wJH3kAz31jLy8/U4jY+tHtvjjVsPZcUmhbGkqAIk8eV0qhqrQAGgCXkiFLX7n7XftZz970a5euWa1al0p03r/6QENgBCgNegoaBg0z9/8zY/swoWLzviWnEUWeXiqiU0yWABComjUAOEnh5eV0c3j2+zerff5ukieCSQfkt8d/kGjmISDn/X2ol2f4e1u04qg0ywz1xwhrugYQqAIrzcCoqoTQgKeuG0zcxM2Mz8hRqAJ1IvJpx8XBM98MxCXCEdSnF9JEPCaCzxT18r6RNA9W/bZ+tGt3kNYA1henmdNLjtyDniFbUvHtkzK0aNH7Uc/+pFNahg4PDwqpsT4/cuC1FFEABAGzMjY2Ji9/vrr9nd/+7dWW1j0+Q5JqtKyrUymgYxqEtPakEq3XAOyJ7BkFds+vss2jW2xYq+skVA8eX23AEvZjZSR6qejTs9O2PychACHVZ3Zi/big6eRQ5qfKD8T6L77Mj6TJuyJRC54ncxCe8aanUUXAPwEGhcCkIr450G/Zi+8yxhb48RyrmztasfWDGksvvmADRXGVCAyGG6Kh6WsOpcZQAPIAy6WCjY3P2s/f/nnPunDooq/S1BM+bIBvyD1MVJhGBgYsLffett+9g8/k3DnrVLSeF3xvA6v0WlIk8KEaJMvyjEslgjwjMKmtVvkxe+QVtQw09+8ljT4DoEO2SWvnM6ehppsYFmozdvM7A2hggaD6Qm4KUcoCC6mgVwSwCIuVJ7HKc3c4qzN1uQQSgB6ZJQu9yGNcygVBM6J4y+aTP6ARBvAYOkrn49ncUOagF6wUWoxNoOqu1CMax/P5jRhuhnhyzOzhExLC7z22mv24fHj0gAjQVQcMu9mXx5gfhhpEPAL3HcSMI8wqyHkL3/xsp04fsJNng+5RCOeB2BUhPDSnpjWlklkAU2OIE7ixsHNNlAc8Wnm1WgC0IEWUJ+NuY1m1WYXJhO+RecKspJieVhJN1E5IgMV+rzUysykzc5OidC6dn+ANCnAYDzKqGAlKEb3ouIILNrQD5q1po0MjtiOzTttqMR7eqRqGcvCdUcqESKXnkCWx7pxDo8cPWIvv/ZLm6/x0gt6lm5Lw8Ry6JcHmALmHNpyRpmP4JrzWq1m69eus8nrN+zVn79s1y5ddrwdLwCHtqDAddpf8A18lS/r70reumGbbq1Ok/EuaIYCrslVf73V0Chh0mqNqtMmXatx/oqPIQyfBRk8UglhIcuSJzuKZxenRHDeKLYkNeG4RYvIQpuWzIMuhESs7qV6QemFJD2IIprVpkzBWn+nH0/tuCPFDakn2O8i4KqKa0AEkwC11ZjTZ87atas3rFSsqFcKR0YdgrRnflmAKWCtAebT+5lEwjRgEhYWFnwjKZNJjBbQeF2ZKB9K4z9AF0irA21jGIn6Z7SwdmCLbRnabeUM+w3ESAjqfLh9ILXcabFI9GLySsd6r2bT9ev+Njhfo2ADjOqGzvErdntwyvdBWMm5kr1zpkrtt7KLNte8YfWOpMkna4L5S8M3b1LgzVoDj05zJ8OwREPJ5MET7jOkY46cavLZAdsgW7h27WbjrZ6MkJFMZz70yrGY0vPGuABlCtITZTt+5KQdfe+E8pT9UexyAWdSwiKBjRc/fHmAkCHECAGmAQEgjmuWgQdGhuzixHV758gHVl1siilFMbZiBYRc6aFVrDJKa0kzYA7YGcUG2TUDW22ksF7OssRFghBvWFfbpeE6vh9CvtQyrRidQ3/QXVdAVg5zMdmf2eGJqcGuzfSu2mTtqtOU9z+xLhSZitKiCvJYfTug/tPgmoAOhR1jfNmSJiBwDvqkir8kj2Pg6OiIFpAguIYIxgSyqdTpllSV+GrFQsXf2lXwhSEJFVIKgiq03ygRl0A03xNoiShXLk/YxHWpYgkr42pUH1O8tKPZbChXmvufH3wjqoT3oszB2bPn3O4zecRbVPPSgk4vF3BOFJwZvI9owMYHN9ro4FrRAfoFhd13cn9HR8/w64GlIbake0+nExW61sjU/GkqOrUXAXOp11PhPzjL457TLuVUAjC2JTvs3wwg822B0oVkfBZUGwIAQ8vlAd8Fw/QmKrArLKkinTb1VTn+xF0XMd2cnJy006dP+zw+QG8knjSe7rZx/HIAIWAYefHiRTcL4AekDitmI8UXSHEmfmxs1NckuEVc2gHStE4DP/v1QN60DvLjxDboHCqGkd7tQJae6gUllbJSVq9LkpIGfD7o3ucx3wFGhWS7EJQGbXhgTGjhIyDpbtG8GOrp10exahCrdRcunPc1AQi9HB8mcTh3f+M3CcIB3HAUEYT5+Xn3V2AEkDIUAF+u07iKOsXw4HBovuQemiCm8RPmJe399RBpPH8iBFWNEpj0u124SVTYSNFwIgPLG/HrAc6pyycI6UIhUW0IgToID4sODAwrnmEhmzWTPfZkdYFZqov5BYjBJhAIy8KQxycE+2IB/ecB8CGA+8SEzJZC2g5wTAFc+4xWesdfna9YYKk7HGfPp//VNIsyEEI6MVrqdsGFwOt3HCRJzbZ7wbcHYPxrsHbjE4wuFsuuDcICUS3jbjQBFIgGoIswCwCjgIWFRccFAkI8AJWbaoC0x/2mIBVKJpJmZmZcaHEeWVdYLgw3C23ExXOXJWkS0nr7laafNv5vG9LyoQ80o5zbhRCCZYFFnzbETRD7YqDyFF2ld8ZGiFe8KFrnDO9K5YqQ5Z60gVcN45fqoCEedD43N+9aAK2EdKdESuH2cPtyAWwgNkLAUHJ6esaZkOLWb4/Ccnxdg0j1owmKJQkBXnzSPhal0jz6SXLcGqJM9GhSl47gA738Gw7u2H8xYJy9MA/6oxD3enVzOeJ3BuST2mPsLEHALBQ0vMtnGU4G830w4ZoipN9bwB3VyTUCwFg81Uo0EgJDQDQA1/S63yT4hzIE6dARgQVHZ4gCkB5pVxpPGxhJsN/A37rm9Iq0tN3TpQS5TUjLToMvwSvcDqCbvcfyPD27ZZAiv8HcQdLIuwX3/NXzEQLGSiCmE1kJHXUrekDY1LTREKjgEzJs52q440VcigtHiE4eCP6bhNg1nQxr1bZUC3BM6YiWIBCfgjMq+WNKnE8CAghDmp5nJpTJ4z8PgsnBcOjCRz/SeQ13MqH7bQDd0uUQJNM6HclVCgBAeV6mcKV8EPN4r5HoaASw/H4qxQQalwoADUz9Ae4tJ+xvAqBRMMKc6YQULxjxRfhxPzpKtCfIspw2tw9pXdAq1Ua3C2EOfFgCQilSQfy7BxBQfvV4lSSmtn2twZumOBcCXYNoSjRvBNG6jpdaR69IGwek6VLcIPRvElJhBR+OgU/QENy/CPrtFizRIc7vFLwcBXDxeYo7KEOs97wuBDCBvXOsfKUNWw2oSf4HhDiww5WZQoiX3PeGR5oUEEqWaxkaci9ldtrb7lTSv2wAH3AEX0xViu8XdaRoA5QJYYq4JP42mrecbjfT8E5AHRSHRWc9CslYXsOb1OG684JV0PL5Amx/sijU7NSt1WmohriOe56IH294SgjmCYaHh1wQUjtLz+I+hIXI6flvEsAD3PBdwA8hSNuRhl8HOLgINZ3B03ryJM8dkD44J1AZ4MOu6FQQbwfcHDjv9MdFUTaXEOvgd4DJLSB6uo4StXq9avVaVTEijgsCCOteUkVKBPIArA+wr4/GwGx3lpKQOoZfROQvG3xHjoARDAIAvqmmAr8voh/5fGLO6aDukQwPHSDHF7SP+/3kOsE8QS+cabbjeyG3ARKXyByF8SCHxq545F/QgF8LqQZQ8GlQlVWtLVqtWkvuMwRVgxnLqmIXFv0BEIIAs9esWeNLuGmPTzVACl9EpC8bggnR+3guYePGjf0eSNwX9UYEgOCth95qDk3qC89tto/0nlLp6SClIm9KZXnp9vILSxGYWTqlZ5MHT9eyHdqHFxTOphLfJyDmKPjwThBoQoCYU4hHn6mYq+jtbBHz9DkNQdtVazTnhWdTdygzUuEjEGi3N0aosMDIo14IwLp1612Q2C5FYAsXr7cB+sT6DYFPyPRi7z8CsHbtGh+mAfGsohriW7oInNNutdnxzvqQvKn2OJ30JwpTqucHvoiF7C9sQxt40Gv59g8W6EoKMghKocBmRxcIRI01RMwPjvdS6RqVtSU9ZjwcAd6D5VEbLI2ahq+OFC+l4suk6evdQBVPP6e0vGOAT7/7pE+PR9UZvuWUVqnIw/4EHrLId63Wmrfp6jXjpQo+EmG7lZxQMFcqNUj1gCqOlfwSUdN23rPbNm3dZPVmVdqBfXMNSbnMgT/LwLuDohH/HECvJqCVCPCRXU/V6oJrul07dtja8TXCCw2HIKvjdJjoYrELDSj8eZi3Syfo2UKzbvNqV459BmoujIyvvKsz0TCvD98sYaaCawzRnmbDQvYQtIpZ4wuyxVzL8o22lZplGykM+3sTQNI3NOmIrlBqhXgBFwKRCoJKF5MSTcCjVMVcxUqFIfkFvBcICQoEQyMoXaIJAJBBVAK4Ir2EyaWdPCKWJIa21FuLtlCfUfUN66gHpcutfUgcU68wCePjY7Zp0wYbGq7oFnUzmymBkd3lBZdfNqBpUK+ElPnMU2CqAJ5RxAfgaea9+/bpPJzWeDycSS20KbRAwKUN4CVM0b3JmUmFG06j4OxN9LgNQAd3vEOpaPYVtHpWzpStkuflXpCQv+WAPkBrwLPQ2STI+lw+l44HBiFvA8UBf3Oox+kvfQexZ+rDyisgbQuawtsEY0VIloUbrYZNzsX+Nz6W6Y9hUabKZmdN+kBnyHwEPhp5YN9e27Jxk7WbrYTx2Nq0h3wWhy8LEAgCTh8OHeZqYaEGNnbooUN27549gY5CCAwEgG68k4CHQ6UhFYVG7ajnTk5ftqmZ60pDursEMTN9vQ59kS1uA6WKDQ4MqT5d+w/pSEyi5dRdoh+elqdJJz7ECpmDISvnBv2FC7HzhQwCJXQXxGtNgvfgFPo1OlCeN9wrNDVc0j89ITUqjOUnREp8iYSpaXa/wTRs0+699x574IGviPFRn79NhPl2ib9o7XFfFqTqH8bT+2kPPT/VENNTM9JU2+3hRx5VarVHPgtMQQOwkhhPGLFeoqFjhq1dFKp2ZTAFN9xHShp75+DMZy8jlMOXUuHi09DQmA0NjrhQwNugTtyLEDmW003mjEgSebl+a6AyYGW+vcNnWSQErglSZveZhDgoLhWIflsigaeWBEA4QqFUsPnFWbs8eckfe0e141/E/kWCotKgrOyWZfRALQ8//JDU7b3uSfMyJzapZHM8Gk8lXy6kZoCAAMB8XmTB5puCtOUTTzxp+/beF+2kl/NFWGk6dk7xcitei9PpsoGmaC1pj2ZHWmD2sl2f+VQGYtHpcLdAna4NoJJokpegjY+ssyFpAqf/CiAG5qdhCaSBxQDd933zCiRlG9jIAN/fufk5QdKkSEdhy2Stf4yi/ExIkksIyoNutht28fo5m1q4JhvJiyHxUtP0njoJlIr9Zdq4a7t37bSvP/OMPxzawuFS43lZFUuxXybAdEI6CkEz4BMgjNevX5eW2mtPPfU1qwwU/RkJvqJelKOWk8Po6aU9eECko4A2zOBL5Np2feq8XZk8K5OIw3j3QkAtrF/wgoxeJ+e+3Jrh9VbKDwhn+KoUgYpAJ2gBhdQFSDtxlkKwX+mbsuiVo0PjtmZ0nW8K9QdGldHttYjvPVRFIH+xNyAKBCj25kalyNDr+ZLXNWmCi9c/lTvKa2MkBGQh3XJB8CMoKjieGXvwwQft8ccfl6rD3omoCmxJ/zIBMwA4/mo3AsCuHZ5B2Lp1q33z+W/azp27HR8ERJzQf9sZExQSzxNFy0Oq+A+NXtWuLnxqs/XL/qVYdwzvAoJeoo/qgjfddkbMH7LRyjqZCHUOmAvx+sA5vErNwRJkEQA8Wfp5QMYGssM2kl/rL43IdXhPH9ogSZFyy6+i4GBXgMcmSUCOcTNrAR2Gk+LZbG3GLs+es1pvVk5SjJEBJY3MDsqsBnLAFjMeHxketickBOvWr/Mnk4s8FMLW7C8RUP0wHmEgwGhegoFj+MILL9hzz31dw1UlpGOAr+OvUYEcYfYJeBOiGer1vNcEU3DV33zKG0wyBZ4UujshoFQonxX//OkuvpaSlS+n4aE/5OJCt8QLRwIiO6FXgnysdL2eFyqJqLJbMHV8bIOND24Q9nJwmDOQ+g3BojRdc3DV4ZcOiAIyRnAEdD8eFhEBRRgex88WO3bm0kn75PxH1ugs+IeseMStI0Gk5qXykG7F0YVUIjaZYdgf/eEf2o6d2/0pKfcpkl4Kk0jjthnKLwPaRyBtatuZt+c8vQdQBvEcSYsQUBbpmMZGANjo8r3vfU/hu1YoLtNEXqc6iiTdO4UuoRH+GlsDeKiHr8Z9cu6Enb922nIDuinTkNLzTgEy5YQjk0J8y4x3FW3fvMfWb9gqtvCmErVJvEwTp2S9VW19LsJgJmHYzMAjYutGN8ssrHO/gE+6xiNfiJezSo2EoDpLSqWUkDqRwDWLLkQ89uFjG+stXnejRhe7NlO7YRfnz8ogzEqlMxvZMD6tzxPIzApicPzxNAUc1/hkDTtwTGbhAfs3/+YPbdeuHTY/P9e32TAJhmGvU6ZyDwbCWHpvuiMJ7cLjZaFlQnDIw3Q5i1bcIy590xm+yI0bN/ytJX/wB39g/+7f/Vt/JrL/hWEnoVMgvXCgj7RFoxoTW2obbyE9P31agyFehsuzAap7KfkdA7j7G1I0uipKC4wMrrdKftTf+wgeaGCYsqIKXYB1YB5nmPkEdCFiegZhxtPD60e3uF+AjXFHT5WSDgJRGh6wy1EfiEdQEAQdoILSRXJ6ezSeD2Z9fO6YnbtySioSYqhXEtAFShdPyAgXRgB4183omRSD73Lwofvtf/6Tf2sPHXowdtaq59JLYWr6xhLSp4xO1fryiZ5Uc5COgMDA9FTdA4wCyHvy5Emv58/+7M/sj//4j71cXxNxIpMypUMakngO2bY6Fq/Ya9i5S6fs/JWz8gWkjSQA6cs47xbwPRi5dZtZG66stU1jO6yUGVG8tBFvfXEkgmd9cF4QdEIQCGNiBHBKgQkHPsSY19h24/hWn0LmnTi8kAHmR88hA8RLGuyAxOEDI1lco1WwpzG2ZojIREm9W7OMtMGN+av20YUPbGLxkgtCvVuVnWzIbwjkMSw8y8gbvjBZvIsA/6LZqqtH1zUsu8f+tz/9X+y73/2OMw0mweC0x6MReB6Ac+pPe3wKXCMIBOIREFYCfQVO5XDNW9COHz9uBw4csO9///v27W9/y19kSR5f+Emb7qCLxPsOZ7lrjeaC6uYrZ3X75OpRO33tuBxDvhgrodBoQqZ7FYApkCZrqXPJHGxYs8U2rN2mGNYNmKCi8OAJx5XA9VJ87s+//4Mfoj397d0CZyy9Tm3ivRJXpy7atalzluObx9hv5cPuZVhkYuZOEdAidQ+jv3pBfoY6hJn0qHQDK8MoXh3fWGjY4MCwrR1nJFJSlhi+yK1yreTP5gkRnvtLew3MwRdguMnS7cOHHrb77tvvQzZ6LAwint5KnfTyFNJen4bU5iNAQDzelrHZ2VlX/dT1h/JB/uRP/kR17PPr9L0IBPK6yhWoRKEnwYX4RGH68gTeAvepvXn8F3bpxmlV0rBWVkNDvl2EsLjALOF4J8B7ndr1tuU7w3Zoz9O2f9sjxivsoJ+PUqGZ93bqICSguCXhEH2/LyHwr3h7pJJiwzMitAph1mtmYcIuT39infyidXySRwXwKBkPsopg7pzpF19gSRAAISimi1pyCEU8neMg8R1CXnLNe5Va1bY1Fzs+HB3TsJTJlbY0ByuYyDkCyQuYELyYhkV9UyTeNw6dylIVGzastyeeeNy2b9/h+/+vXr3qzwCgFVxoKECQOoFcIywwHGEhDYJw4cIFz8s7DJ9//nn70z/9X6Vpvh0CrPTkjRdbxgOqrIEwEgDSyTT/hZ68n0c9vt6dsSOnXrfjp9+2lmjYK/C2U0yf0tAY5XMBugvggdVOo2sbRnfaQ3uesvXDO2XneMwPMVD5EMfRu1kIoGN0euIzrZb6niKysl3RBFiZs5bimrZopyfet5eO/gc7P/W+dYtylCR9GTkh1q2od2K/eTOZeocIIuWkEkKYMAxN7ouAvE2jpZ4P45hQ6akX5zvSDrVBK7fW2N7tB+2xrzxtW9bcq0bw+bp4lQtLo858ocWyAT5FvRGPWPGtQ4wW6tedRqXBRs/PL9jHH5/yZwN5vxCPjaO6EQhMQAoIQhro1TB+//799uijj9pDDz1kmzdvciGhfjpD6iRiMtKXWvKKGic0GsCDJ9GlWJxtSPVP20fn3rFfvvdTu7Z43roDMnj5ugZc0qpqA1qD9xbdnRCos4immWbOHtn7vH3jwT+yNbndUj7y4YRSDuKxOOiOPCKBBk3qgddoKgRQTmWmyXfcpDbgVSgE+nLO2jLsvNZ2tnfFfvH+39hbH/3UMkN1/9I3Y72OnI+Whm/Y6XitbQgAIgSCoMDHoCRjarBKVG8DBx7ZVhbvKBU+7VavaKQ0YIf2P2mH9z9ra0qbVVYiBP48P8ylRISB3qszBV5kRYG8Vt7RFoMJ7OdnjE5PbbVb/vwCzwmeP3/ePXyEgZ4M4wcqg7Z502aNNHb5fgBWBREkBIOXV1M+PgJAHXw8EyA/ePHksaPFTQEHBIDRTiezaBcnP7aX3/mxnZs4YV2ZgVpGQ+KcyijI1Ck1y8589Dq0ZwQgylsW67xLK4Ky0FqR9YwNdMfsuQf/wB7e+03RbI0NZUdYluGustCxqQmuxNA1bqClotP7bHCjy6SmmKSG+4RQYqOc0GpMMzNv753mK6g/tmvVs5YdalhusK1hj+xoFydkMAryKlJNoIp9+AMCHKnYa1GAgEqvIHJKnZb8vYYDmVF79uFv2WHZtlJ3SA2qyMVR2bzXB81FGRJUCJC+0cxVRcoBT0CgwYHNUlwKpI1AW31dJPXOVE4s67r4+p+rbL+nNO4Eg7PKTqIhtnc4VdHU0LYtrWh53NtZu1G/YG8c+4V9eOZd6+SkvXINOYJMjlGPYyBBgR7SZOqEObWJx8y9EznB0KuqTyqwJoFkv0WxnFfbGQK3/B0IzWtFO7jtG/adr/6hjZQ3KjXvPmA0J7pShDc12hJk4AfacE09ESOOwCQ1eFmiNA0E4i1bezbfZzs37LOB7Ji/ddQl2LX8ErnJB4PRBak+iNgQjDTEMnMwCutY681bYUQ9T/by9aM/t3dO/9IamRnRXOpbXrXsBo8tKqeGVQ0meFRLTlqCh1pZffxMQMBY9ILBaSAO4SMg6ElIcEzBrx3xwD6ogdLGkWWUE/sg3C9J7jNpKbSEp3ygXF3tmbG57nV79fiL9s7JX1mzUJUvIM0gDZB+BzrmUqCD8t0MxCcnvG6G7yuwaspcSVujHLQUOCzO1224tM52bThgg/lx4SOakFP8RHiZwsCSOne8QKQ1BNwjvLMTYhzRB24THEQkN3eSjvGh9bZryx4Nj8YMLcnYvUcPpUzZNvyCntRLuvFkSdopBgwieMOJ9R4n6ZdNyOI81efUsEVbrE/a2x+8ZsfOvqdB46yKr/sb1GpN3Zcdy1ewayJ6XT0Ds9aTE5R8GCrT1jlvSG9LOORvoEHi7eNUp6NfK54p8C7zHji/EksZ0Pg+c4o3GMJinE4FytKR96bwWkoffMH4KvsK1IaSSFlmkLsghVWz2foNe/ntF+3jTz6y4oCEEo21RFUBtAjiq2AFGgIhk3hpHBb1nG66ZCcSnY1FKd4JXVJPzzbK1lks2pZ199i9Ow/YgO8kKvgwHhr75I8koL/FLRj1ubBCCG4GvHOmc9vyiHfw/eFNu5zIqBy+/8MIZKkh6g5+VKQ3CqBhQdB+wx1YImZ3kMjTie1XhbKsVqVnC60pe+29l+yNE6/YTGdCTlTN36ucKcAkOUIqincKMwvp8nSrAErLg+KoHS3kR8cBpUiZElwJo7+oOmWE4yvfQvaaGc/+q+x138tSslJRwiK1XO/OxzqATOf12Yv24pv/YB+eOuJ+AW97iVlBBaoE6B2Uwy+4wjD/R09iAuTP6Mj+QYZQuZK0kEwNWPHm8gJfgquXbSy/yfZvPWgbhrfoXlG5Qkx9c47SMkRk9JBq4BAE8Ohj0ofcn//w+z/kJJACOf3pAlz9PUJqAGq7VGTip6mGXpV3LMa4d6dCfSgEpb2A5EjmJEREPyyd9XxTRbmcs0q5ZI1azZ01nLmF6rxNTk3YvDSEP39QGhD66mctXhEfS8ioxPSNqStrWBb0E0HEEI7xnn9m7xjqIrRoroQvfebr6HTQbaKhHc3iNiCHU71CERJ4efrYe/YFnLn6kb30lpzAKx8rTnjKNDBPEItkKekT+qZ8cLpRlv5dPeO8SRCENHSnzWzPY3MtE0N8Fo8PXWT4xsGWg/b4/udsvCQhkEZkTxjsT3mIg+taV9gt8YfQP1GI39z3JQRhp9Nb8QeAOsXEHLRZeahkc9VZu3rtqmfISJX2+JyrV5K2bDkok1OYBkaZ8Utlknfl6WBfpG2oAgEoV6TWJcbztQWbnpmyG7MTPiJhCblSkPeue2xP44VYLKCku6K94BUhbRRcTDSUiJoeIVCof3BDkLyfk1EhsjpQhKKopqd6e92aqCZhEk6N7KxVbdqOnn3Hfvqrv7VrsxcsNyDBKmgEUkTDSAjcXFIIhaXUDYlyR1QdyePwZ8RIBNEFU/G8Y5oHdtiphCnINKUlFvI2WthgTz3wTdu7+aCGgxXlxRWEFoE3VYUA0E7anwiB/+CPhU+WxuT+/Ac//GFkIuivLylChHLoaer1fPbGX8akuOn5aVtcYPpTDBRBvDGkV7awraAQFS0ROcoM5EJFMdamknpNIw55wZWhQTEYAsv2VYq22Fy0G9PXbXp2yjLFnmuFgvJo8IemNH/XpZjqEx99U7TE6KBISgCAa+onANHzfWLKHUqYsZQ8ZT49st3V+L4XXzTJFdo+aro094n95M3/ZL86+rJ0dUMBnVmVWTNprUWrt6tqF4Wk9TmF/Q/wEY4zSTgkQuB0U3rXBNIi6OGivHC+GGf1vJU7o3b/rsfskfuesYEcL77CF1B+qlEJHvyHOlM6BH/ibqLtEiw8tHF7xQhnTqJKOPptTpW+yVZpIcNHnGs2Y2999Kq9fuQlW8xcs25lXo4VH2GKLFTtUuaNUmaI64QOpBghwzDmFcJ9zfijbwhOXWN4BC6vHo/jl+3Iymk00mtI0psF27HhHvvag1+3PZv2qhwUZCmGkc5EFe+No85oJMeU4AGB3XKIHhG9w/N4XADFeE9mTQPzoaM4YbO1G3b0k/fsbXn/E42r/nlctovjvDY1dKYHxzceID6lBS4pPjE8FqOdbmqomJ/psgqK44smkI+SZUhZs2JJ2pKt5O2KdWdLtia/y373a/+j7dv6iJSIhtHyTJ26SdNcAKAtwoUH65ooOiY88Ukj1U+7SepddekLqdF0ekMQMmLA3Ve81DCeGeADT1Pz1+xnr/1nO3XlXcuMaAwsZPNyYNg4giMJMwvFihy/sj+/4EMzLxwhCAcydinBPBATBon0Ry8gsbCgcnn1CENBRMq3ihqmDmqkstsO7X/MdqzbbxVbI7KpHmy18C7wDmWd8vo7lsWLGlpRAUU6HXQOjTi6W+MD/eSmAs0XFiIdc3oSfP2qGyiuZlO1y3bi3Pt28vRxuz5z2Ye1vRLPV6SEpvci5GFGOTrQDqdpIpTebqW5pRCgCShT93ISPp4ngBcLfPRqq8zAd+3R3d+wkcxmtVsdRBoCB51tAFRK29xCersC//BJdB8Bu7UQOFkUQaZICrKhzl2exFhspxqZgxgatvUW/HOwP3/772yqfdEypYaGclXpZ91tVa1Q4uPPvAJW1bIwJEZHlakQMNUswfMdS3wtnF6Ek0bjg5juuatevHJmDyu5Af+AREdDMz4mMZgbse3r7rP79xy23Vv22VBpVOXnpLKFM9olU5aaVN2qyUENYdaYEI2HcBIU4YLjxdoGwtdDfesmYq8+aLXunF2cPmunLxy3C1dPyTxd8m8L5NRDMyUJijMSfFWxjgB080pS8J6vILxCCOImows6BD2UL61GTxXDGa1IE/D1NL7PjD9g9ZxtG91nz93/e7Zv3SPWqjMaqNhweVQ0FK9UNQHBRp47bWmtHqYLPsI/6uScOiQEjksiBJ1ECJxKfgRCarnyO3jiFJ7riCw8O9eSjC3Y6yd+bq988FMRaloUbbimwGFSPb6ztqPGZ/0VNWqk9wLYTcP5XBtCgICUQCPRAkmvQiAQGDxcsGN6uittoJ7iBGkrXtoh0yxboTNkg6UR27hxq33lwEHbvXmvtMWIcuM7IAIxusd7dgL7LwbERUaxCGS0HlaiAardqs235+zspdP28acf2o25K24C2nxQQr0Tr5+xuzPLNYWTeSXj0wtnODVAU2rWdSoECACCA23UNhcU3aftaAm+O4HjyGcC+Hxgxdba/TsP20P3PmmbK/HFdL4sWczyrWQRXeVg3UV4d6AZWTB1HA4wnKTsRAjARFEhBLw8GHApJgCBeJBL5SSBQttd7KJsnpg1UbtkP3v7x3b01JuWLUtyKxrzF9gbUBM+YoCQZ40BFbQkBDQcIVCJvaKqZO4f6VfdIooLgqtUETjR2+xVJH+OoEa4L0zvajFsKknly4do9axZB/+CrR3faLt27LFtW3fa2MhaGyyMWEVmxNcjYIbqo378k3av7q+IvzEzadc1LL1245pdxxldmLKaejzfIe7l5RSr50Nr1DQ0YCXUh54Q2iEY6+BMvkVQUqeo7jtNXfAVpwvf1u/pECfiFSRkLKEXZVaz0oKtBTnMXb4XccCevv852712r1qET1BUTgSdTTg5X4JnTYcVTgQKWjqWjgIaKYSNK6dDtyWly3VfCJAaHZxYgZiLCQ1QFHsRO/KUexoV8IzihclP7R/f+M92/uqHVhiR49ibFB9EIJ6RUx7snDPbpTwI70JEIx0Z7KCgX78QduJIPXeZUZRqZ9+CcrqUQ0AlY1eNb4dTnnZT9emsiFsuldpqKE6VszkGDcCLI0sFvhImorCHkraQg/2AsgG8qLqhoSomIMvW8ZKcTiaD8uELtbr0yqYYwrcMpMnEeIZtDFEdGQcnWgJOUMfV6dePWw7RJaA1cpQuwsG2EALRqoB5k3A3Or6BNIvvU+uJ5WXbPLbVnjnwrN2/9SGVwpvYWVMdsHJ+SG3kBaIx7I7t70FPAA64veDodFBYKQRIDUgQgQBEr2G/SWpvwpFiyNTwT8e3ZSI+uXzUfvnu39qFG8csOygtUBLhePpYGXjyJoQAdQVJlN89bZitgwsHAKki9MkGsgr+uLobc+EkZy8+Kkk6lcPDHnIK2ZDC94jdPtIM4Y7egNH+mLay8wwjH+VCuGgfmooHJSkJ00P74AhMYB4iFUYcXmJ99VBEdeycgEGpJXBCRjOSO/xGa1YCObt4cOAh5JYWkMCN2oSv2t7CUQFPnxZW+9hz0VK6VtZ2DO+yrx14xvZve1Dabq3ahQ8UT5XjS9Fm5zelOX8Dk0APPOEHtz4jBGo4iYQOvYudPhTmAsUNHX1DqJBmVbyJqsks2rHTv7Rfffhjm+9csWpv2p8yyhRlDnB2PlcI1FjKFfgBXPvnSqmkCABzDf7omXof2DGNDSMZQ7MXopBj55I0itK3pQoZ4RBHeWiPlFlxVA/B1xBD8RnY8+COr8er1UrobxfnyI9O2Ujij3l5DNO4EUc5/tUxB9LSPtLdCmgrBIyywUSY60TmTcznaeGctEw8MQw+TIqpbEyBRlod8YF9DODJk9klCYRNZm1jfpt99ZHnbf+uQ9IC4zIFlFe2Uh6BiOocvG4h7mVzzWngm+lK30QkCRCCJJHfpgc5xq5W3EFM9gNQCIvQHfyE7LzGDBP2/ulf2Mvv/Gc5VlNWGIbA0hQqo6veSGOjZn6jLp8sceQEOsTd5Kiy/QxN4Jc6Kg3b1ThnbgE+d/jcjHo3jUDdYzqwh6h9ItEmznzV48x1houUCJeYyFO9DC9jw4kspq4RBM8rlviijC4dH192liBgVhSLQBIA0sZkUxI8NgUaF6m54RgIr447xdhzmTZpzpycbpxVX08AsgVdifkiE5+75e0j2HhMMl+ZHegOWGYub4P5tfb4oWft4b1P23Bhk4jCGoIcabSgiqH9LgDLeAv+caawNDpYHgC/vSwAJE2zCxAQGpOrSSvMWT0jQTjzmv38LWmE9g0bXFO2uhpX463bYk5eUs0OZew1Gz9gIs/sJ2xeGRLhiF9qDMKLlck1v1hV8sbVCqCI5DQgKXcFwAyO/CThM/mAyBvEjECvbiFALjESAQlITm3L65g+u8lHwLjrG1UQAjf+yq0jSr+bGdRRQ2QJbF4dIivfw+RvsbqKDfbuqbzhOySC58gFhr7chKauyT3srrUHdj9pT+x/3jYP79RIilERBlF5MIGqIyftgAmUVfQi6NiIRe4HP4gFpIBo0FJIIW28oH8LadefzukZ7sCpSh6LLpRLNjU9Y9Mzs77aV9Q1PY/dOvlCwUqViq+Ns2uYzZJRHhBkDlgWH5zyyzSkIpFgob+V9wkr4VYp6L/6hWEeQt3HJBaBa1JF+YrQDyF6NAzhq/BpinhUz29JJcvllXceGhRnGvOFt692cy164AYyV8cDrK6FFeOPBeqevzMK4fE2AhQc7Y2IrvwuOegMV8s50bJt169dt/nqvI2MDNlwZVDaUL6ZaMzCHOayI18C85hjM4gKQbM6/+RU0ao7B4gGNkLapznZNJGpqyl1m+vekEZ4y15/72Wbrk1YaVgyqSHWQnPePe1imaGjRgiS9FgFpFUKKnOpp8e1g5sq0ExCoiX66e4aQpCiHsKSllmCtF4YDx4RyOLLvu7cqQVK4h09CWmJvM4GM8Bn61iVZchH8DeS+OhE4pykz9PbxZmWRitoAdZWYi0HDEikkECUKTzcnyhasTPgi0v59qDdu+UBe+LBZ2znur1MJ2m0BFULVuEF46FKws9Rcaxt3L0QCGAeHrerFA2t+JQezhrj0sXerB0/974E4Rd2deacZcotK41kZB4WZOMWLa8hmDNASNHjwnHEmUNKIaziVggB8wvRW+JIreQLJtwd3CwEwM2CAHmoX8e+EBBHzhTfND3lpWmFH34HcSqSwB38Dxjs2+G5pzQAzm6W/Qtst1PzcGlcK7kQRLletgsCeTgnTnk1RC7J1FZyg9aYU4eUedixYb89+/B3bPfmB0RZDRub+Ac5qxRVvoSMMmMntopZjRAkLmWoLiGLimvipAk5ZtQatmAnLxyxX7z5E7s8fdpyww0rjqgn5GtWbfCJW5GROYCU+T6nwMwZ5yozUcfBdAVGFT7LFoKnWhRP+uVMuwOAAMnpEtyqLNpJ4oT4Og/zwUzo0jwHGMW0N7gKQ4oiKEGQigtoRdvEdGnFgnozaxwNqeoWs6EaUvfYfCrvHyFzlU19ar+/ksbpIOYrP+9FQpiK6oDVRTa2mJgsP6OuvPVBGylus6cOfsce2fd16Yph/86SHASNIgoyVSoVBEXj5KvpdwcwwmtWo3CuIUxJDh+eabctT10NGh0Zs3Ub1lqjWbfrE1dssSZkpS+Z1vRe4owk0APpMhCKMgmqw4lJiNFEBKdMkoe8fnFX8Nmcn1cW8Qp+Gy0WDqDPZirGcUwEgE7g/gItFPdhOj3c3wrHRE5DrKwrXozPqdtTBottMcMatppd2uR3v0BlhyAsBUxObCeTc9pmwU5IMMOYbbu5xfRUNaS8cv2G4zI+vsY/IlaSAPjmGoRKv9DwroVAODgP0OQs2PBqFngTrIQCqqYtlaOevmZ4zMbHRhUVD3nWqizNSvUVNFpQ3mA4CHGEwUgUEh+9Ps5dyhSoGOAkFZ5+5B3DHef0DDA+csIQ/3AomoA1DxeABE8dnC5dtZXhYD1r9dm25Zsl2zS21baMb7GMBGJ+elG2miFgUXlFS+hKeWp3Rh4mDAtzwLlaDJ3pwaJts9FSkPPHTGdZ1xKIapONL/IPSmWfDWXLfVNxa8fHrSIToP7nyMUiktz51WgC1wCu58RsPGHiGH6IX4wWmLDJ4RCp0uHKiG3bttNKA4M2MTEr9SVJZJkXY5mITlAuGp8+IMEm1lhhJB5iixTKw7gZIUiZcbdwx7nTDP0jeIUZiI0gxOkHU4a56IjI7aIVOhXrVXVdLdnuTXvtW49+15554Bs2UBrWSIrvOkgnSlvg5/heBLeICH+YgFQIXABIAwK6zbMTA0PyBTTyanakBQZUjwSgLmHwJ6TwPUS3ievXbG5u2sZGRmyU19nQ+UQ/ptXv2icgEw2GKRTIUy+igXdWv+mgCHbz5pmBZ9cNoWHnJ8/bK0detlOXjlq7OO9bsXg0vdurSpIXVIhGEBUxWURoqyE8GofEduU7dKROmcVkCJdTvb5xh/Ysg75HLQFN/ZZbgm6tzErEUnqmiQn4bnjTAMMtyveHX9TgfAHWSH3L1rIc7f6RiMuObGvmrJwdtGyzaHNXF220uMZ+66lv2eGvPGkFmUrmXHnf4JlLp+0nr//Yrs5etMF1eatm5nz3cs9fYqEOgGmQPWdHcZEpYZXda7vb6KEjnDu8CEyCgzDyrWZ/yaY6WafWtaHsmA10R23hcst2rz9gzzzyvN279Ss2UBxVulULAb0SIXBe+zF2z3JXIengjI+bGhK26DXSGJBzpjVt75x61d458UubnL8kp7Jqw6M5Gxhh4nTRFmpTkuS679hR11A9rDYqSLUSILTEQr/0Eqqkzs9CKhC3BPBNTuPi1mWocvk8cQ8hQDB4uFYdThi0rNZge5wctGKsZrY1JCuK+UUbsLmJqnUXc3b4gSftm4++YFvGtkuiwJ7H5EvKLTuujnFFI6ifvP4jO6qhdXFcvsJwy59j8CeYIYFo0G6q7HrXl44Hy0MqJ56UYq6CdZquNEjH/RKEpy3BadiINIVVJURzGhm01tiIbbLfeuJf2UP7nlBzeQIboVqFELhqFhmhne8UEkl8yEMQ8OQxkx+Zopgme8c0s9rhGqQjgYDZV6tnXBiOffSOzS1elV2TFhhUogLbqxoqX0RSetjdlSfeZWmaIE1QoCe6uowm3MzwX6sFAN2OHJykaTmm52qbmyvVEE1y+UYg2BTLWn+xJEdYmgr/h2cxSnle8VO0hemm2/89W++z3/rqd2z/1vv9QR6Tw8y2cT4FxLqKby3P8fTSgl2e+8Re+eAn9tH5t62RmbJuUbae5Wu0gXDgmUt/7E71tJuyBWIdbe4pni+fMgUes5Jt4QTtm8KlY6OlEevMKP/CoH3zsd+3Jx98wcqZcfFM3iRadVVDRCchYUkAOAYN+RFhIJ4IyQsnsOVtXaNZ5QdZPct27Xho4+rseTt26i376NS7Nle9bhVphHyZfiZhEIO67iWz4sdIhKDy2TmDJkh4D0HSANy+OeAk8I0QQFYCSpdfnxlls62OlEs9biaED3sa6gttm7gyY/luye7beb89c/h5O7DzAX/vE3sfSlaRYzYkx0wC0IAwKjWfk/2OXp8t1myhc81+KUF458NXrZldsNyAhpLFri3WF6Gslf1jYky9q91E0FbRhfWZDnhJCLIyo7mcgojfqUsQZJYK9QF7dO/T9vwj/8rWFHfInEi6JIRu3lYjBEuAECTFONESSJnhg10JgkIK9G4UIY+78/xzV8xuSDNcm71kx06+ax989LYtNGesNCQ1yIMcSDY2RyqYYmIiRr3BSXNrWC4Qt4Q+rpyA/8oQ+OIThDnwBTRuKQ51zo4fPobPZhY8fJi/d+dX7NEHn7Q9W/bZaGGt0K0ote//UV2o9Nj/wNtZczjGAnxc/APmVdpifE+d4vin79nL7//MJuYuW35AinEga7VOVcIwT/X+FTXfbs9QQm0Mh5nCuKSrKI0Eg6eWZy7P20N7DtvvPfM/2Hhhqyor696QD1vVotUIQUIoPwKqXVh49RBe0U4wnaoTe5RHJHFdOVb+fiK1wwO93cWCp3rU2NacvXPsDXv/ozclIgvyJ9QT8hpasmElF4+9SeR1zsoaRUevv7n3r0YIUqbDLAiGUMhPVe9XJCp5QaI707ZBOVj7731AzH/CdqzfY5XMiJhe8aGhC4CEJb43Ke+9KMHxB3nQnCpGPRoolnO22JjzDlEqi+E2b6evfmSvvPuSnbl80mdbM5WOLbRnXDPwnCIakfkFcI1dTipTR7Qv+zC7GpK253N2YMch+9Zjv2s7xu4TNsPSAvIFEi2g1KsTghi6UAyXFEgIiSQOAjttBb6My0KJVDhjXwfcWbq2epojjrRoSImWoGfwMuzFzpSduX7Mjn/ylp278qHN1K4o+aJlCxo1qDdoMKwyVpqB9Jzl4eUC8RnQrcjBCekIaJbIE2pfjJK9b3vg+UM5XOJbMVO27eP32KP7nrQHdz5s6wY2KpfaIjtbsniqWuKjtKISu3zk4GbVNvQXIwm0WFFCzLinWWfLHr275C/4qnVqPupgxHT62gmZh5/Z6cvH/GGXwoj8kGE2m/B2VyEnGgoz9Yd4ZlEY++tr2tWMNWbztmPt/fadJ/7I9m9+xJnPru0KO7Jb4CANU1yVOVguBPzSnUGBc52KuhBQAuuqKc8TzIz/O2qwiCAPR+ckEiNzOCiKFv096BZ+QKPHY141EUM9X6ai2rthl2c/sY/PHLUz50/YxOyEtIY0g4SH+Qi2fBH8O04+LUqPUcF9Bqe/MJ+6lY5jAiSLq7hH72ViqyUVjiofHhyzjRu32O7d99g9W++1LZUdYjdPBDPdrbIQgMyAHNayCK78DfwV9dYiNptZQOEDDUQqqNRpitk68sKNqE+NV/q8tAULbQ0NFNmRfGn6jEzDT+zU5SNmlZq0IsNHdahC3hpoVHwj+QEl5mrUGSVD1pzL2vrhe+wbj/yOHdz5NSuzNb9X8Q27khnXzoxuVqkJgGA5v0G+CDcXSCxpxVqd0+UjR9wRxxPh4T/Ny7E/DSusI6A648jKxHTjip2fPmUXLp+18xc/9ecXa43FZD9gW7IFQeUw6c83kVCwWys5eAT1Isbc9FZeU89LoJh/KOQqVpQhHq6M2drxDbZ5w3bbsXW3bV67zYaKY2Ic8/oURU9mYSaEyRfClN8dSfWCELCEHt42nUnS/E9enWpVUJtcgOCI8HFaeHbdkT7M1FVRw2bqV+1Xx/7R3jr6spvGgXVFW8zP23xvXiZGZkc9J9PMWqU3ZHKlrNAcshce/x178oFvCEM5o9JMvOvQX3wJGkkdXPwTOYb//NBlHJypimCLIhbOJbuYmrbYnrOp+QmbkpaYmJ6wmYUZa7Gu3mn6m8x4NzIzachiXo4V27AqpQEbHByxkaExGx9Zb2tG19vo4Fqr5IflzpVFwKUdvcFoMVb5mRVNH4i9UwiBkECjGVxgVDaPzsOZlCOqyh9n6y1aoYTrPGMfnHnL3nrvl3Z94ZJ1x5tWLcuZ1FB8KD9qhXbFFq41rNgatOcOf9ueOvgNG86vVTFqg7QUb6Z1gUuK/xcvBCAdOkK/9Co1SDTzWGYgEAhcTcirPq5YUq+gr4JsqUKfKJ46plJR8ZwzU0ks92KrHf1ef8587qe57wxCCNBOYKRS0CCuEfymgzNJQ752pibsZRo0kqr2ZuzEhaP25gev2IXFTyw7rrbJJNbn2lbuDVqmWrDHDjxpzx/+jo3k1gpDaQCEWEIQ2uYmfP8lC4E3Bs7rn6G6Ojid24eP8recywgBIf6imcFoFDZ3pGoVlhuwOBOTYbb3GtlZaQw3HyKnVyhzhibwc4ZpHO8QqMfXQnSMJXMEgfO4SYmcejs05q+25q3WnbeCHMacBOP0tY/sZ+/9Jzt742MbHWM0UrbrF6fs0L5H7YVnftvG8+t8lJKVAKAFWPJGaP//JwQKNAlZ8CgFn7vxczVObWbjKNc4iD5aIKGTPHxTHKTIiXgE8f3a/Rb9JWWvAJxNPyA+SNytEv168BpVuNeii35IbvpRP2CMuuc1AE0JLGaPb0lrIG2XF0/bP771t3by4xPWrHVsz/a99p2vf892rtsjoWC3MY+qlVUuvgYjt5txpXaFf7FCIPSxnxAOnvgEIsSDsXjfSVsZIiIACd8cfMu5EpDE412FREjjyNduy9iIAQgLD7r4Y3FITZIoSHi3miAEgOrJ/XlCwH2Elz+G1rzAinUYf/IpW7fp1hX7+5f+ziauTNp3n/ue7dmx1wUAzcAwJDUzqJSVQkDJYKCYf7lCoAaIaoS41BGHT/E+YUSc7IL3dK69zUtN5a2s8qEVRBhFp7eS5FL3+kGgfAEr7nlC2XF/5gH7g4lgZ9RSgtuGzwgBgeLjpt/xt8wirGoHcxRoDl7Vw2olr85v9uZ0n6+zMsbQUDNT0uApa81G2x9dKxcHknZFDempHzn1esz+P7KBHRuqNy/7AAAAAElFTkSuQmCC;" parent="GeeqB23RC3CqzmivtxCw-15" vertex="1">
          <mxGeometry x="12.5" y="2.069999999999993" width="34.81" height="32.93" as="geometry" />
        </mxCell>
        <mxCell id="GeeqB23RC3CqzmivtxCw-17" value="" style="edgeStyle=none;rounded=0;orthogonalLoop=1;jettySize=auto;html=1;" parent="1" source="GeeqB23RC3CqzmivtxCw-13" target="GeeqB23RC3CqzmivtxCw-27" edge="1">
          <mxGeometry relative="1" as="geometry">
            <mxPoint x="158" y="230.893655049151" as="targetPoint" />
          </mxGeometry>
        </mxCell>
        <mxCell id="GeeqB23RC3CqzmivtxCw-28" value="" style="edgeStyle=none;rounded=0;orthogonalLoop=1;jettySize=auto;html=1;" parent="1" source="GeeqB23RC3CqzmivtxCw-27" target="GeeqB23RC3CqzmivtxCw-1" edge="1">
          <mxGeometry relative="1" as="geometry" />
        </mxCell>
        <mxCell id="GeeqB23RC3CqzmivtxCw-27" value="S_ORG_EXT" style="sketch=0;outlineConnect=0;fontColor=#232F3E;gradientColor=none;fillColor=#3F8624;strokeColor=none;dashed=0;verticalLabelPosition=bottom;verticalAlign=top;align=center;html=1;fontSize=12;fontStyle=0;aspect=fixed;pointerEvents=1;shape=mxgraph.aws4.topic_2;" parent="1" vertex="1">
          <mxGeometry x="215" y="165.35999999999999" width="22.61" height="33.28" as="geometry" />
        </mxCell>
        <mxCell id="GeeqB23RC3CqzmivtxCw-36" style="edgeStyle=none;rounded=0;orthogonalLoop=1;jettySize=auto;html=1;entryX=-0.025;entryY=0.585;entryDx=0;entryDy=0;entryPerimeter=0;" parent="1" source="GeeqB23RC3CqzmivtxCw-29" target="GeeqB23RC3CqzmivtxCw-1" edge="1">
          <mxGeometry relative="1" as="geometry" />
        </mxCell>
        <mxCell id="GeeqB23RC3CqzmivtxCw-29" value="S_ORG_EXT_X" style="sketch=0;outlineConnect=0;fontColor=#232F3E;gradientColor=none;fillColor=#3F8624;strokeColor=none;dashed=0;verticalLabelPosition=bottom;verticalAlign=top;align=center;html=1;fontSize=12;fontStyle=0;aspect=fixed;pointerEvents=1;shape=mxgraph.aws4.topic_2;" parent="1" vertex="1">
          <mxGeometry x="216" y="273.58000000000004" width="22.61" height="33.28" as="geometry" />
        </mxCell>
        <mxCell id="GeeqB23RC3CqzmivtxCw-37" style="edgeStyle=none;rounded=0;orthogonalLoop=1;jettySize=auto;html=1;entryX=-0.1;entryY=0.898;entryDx=0;entryDy=0;entryPerimeter=0;" parent="1" source="GeeqB23RC3CqzmivtxCw-31" target="GeeqB23RC3CqzmivtxCw-1" edge="1">
          <mxGeometry relative="1" as="geometry">
            <mxPoint x="330" y="310" as="targetPoint" />
          </mxGeometry>
        </mxCell>
        <mxCell id="GeeqB23RC3CqzmivtxCw-31" value="S_ORG_EXT_XM" style="sketch=0;outlineConnect=0;fontColor=#232F3E;gradientColor=none;fillColor=#3F8624;strokeColor=none;dashed=0;verticalLabelPosition=bottom;verticalAlign=top;align=center;html=1;fontSize=12;fontStyle=0;aspect=fixed;pointerEvents=1;shape=mxgraph.aws4.topic_2;" parent="1" vertex="1">
          <mxGeometry x="216" y="367.29" width="22.61" height="33.28" as="geometry" />
        </mxCell>
        <mxCell id="GeeqB23RC3CqzmivtxCw-34" style="edgeStyle=none;rounded=0;orthogonalLoop=1;jettySize=auto;html=1;" parent="1" source="GeeqB23RC3CqzmivtxCw-13" target="GeeqB23RC3CqzmivtxCw-29" edge="1">
          <mxGeometry relative="1" as="geometry" />
        </mxCell>
        <mxCell id="GeeqB23RC3CqzmivtxCw-35" style="edgeStyle=none;rounded=0;orthogonalLoop=1;jettySize=auto;html=1;" parent="1" source="GeeqB23RC3CqzmivtxCw-13" target="GeeqB23RC3CqzmivtxCw-31" edge="1">
          <mxGeometry relative="1" as="geometry" />
        </mxCell>
        <mxCell id="GeeqB23RC3CqzmivtxCw-38" value="Stream to ODS" style="aspect=fixed;html=1;points=[];align=center;image;fontSize=12;image=img/lib/azure2/general/Log_Streaming.svg;" parent="1" vertex="1">
          <mxGeometry x="770" y="181.71" width="40" height="47.86" as="geometry" />
        </mxCell>
        <mxCell id="GeeqB23RC3CqzmivtxCw-39" value="Stream to PS" style="aspect=fixed;html=1;points=[];align=center;image;fontSize=12;image=img/lib/azure2/general/Log_Streaming.svg;" parent="1" vertex="1">
          <mxGeometry x="770" y="261.71" width="40" height="47.86" as="geometry" />
        </mxCell>
        <mxCell id="GeeqB23RC3CqzmivtxCw-41" value="Stream to RDW" style="aspect=fixed;html=1;points=[];align=center;image;fontSize=12;image=img/lib/azure2/general/Log_Streaming.svg;" parent="1" vertex="1">
          <mxGeometry x="770" y="331.71" width="40" height="47.86" as="geometry" />
        </mxCell>
        <mxCell id="nryWLB2QJNSPuGqSHJUb-3" style="edgeStyle=none;rounded=0;orthogonalLoop=1;jettySize=auto;html=1;" parent="1" target="GeeqB23RC3CqzmivtxCw-7" edge="1">
          <mxGeometry relative="1" as="geometry">
            <mxPoint x="490" y="271.0771477643052" as="sourcePoint" />
          </mxGeometry>
        </mxCell>
        <mxCell id="nryWLB2QJNSPuGqSHJUb-4" style="edgeStyle=none;rounded=0;orthogonalLoop=1;jettySize=auto;html=1;" parent="1" target="GeeqB23RC3CqzmivtxCw-8" edge="1">
          <mxGeometry relative="1" as="geometry">
            <mxPoint x="490" y="283.04743636417015" as="sourcePoint" />
          </mxGeometry>
        </mxCell>
        <mxCell id="nryWLB2QJNSPuGqSHJUb-5" style="edgeStyle=none;rounded=0;orthogonalLoop=1;jettySize=auto;html=1;" parent="1" target="GeeqB23RC3CqzmivtxCw-9" edge="1">
          <mxGeometry relative="1" as="geometry">
            <mxPoint x="490" y="293.93496168638626" as="sourcePoint" />
          </mxGeometry>
        </mxCell>
        <mxCell id="HHCxnuw1zNjuzFJ7a6iT-1" value="Enrich Stream" style="aspect=fixed;html=1;points=[];align=center;image;fontSize=12;image=img/lib/azure2/analytics/Stream_Analytics_Jobs.svg;fillColor=#E6FFCC;" parent="1" vertex="1">
          <mxGeometry x="440" y="256.64" width="68" height="57.99999999999999" as="geometry" />
        </mxCell>
      </root>
    </mxGraphModel>
  </diagram>
  <diagram id="ieR4uplRsXKWkkTvdpqU" name="Page-2">
    <mxGraphModel dx="1422" dy="804" grid="0" gridSize="10" guides="1" tooltips="1" connect="1" arrows="1" fold="1" page="1" pageScale="1" pageWidth="1100" pageHeight="1700" math="0" shadow="0">
      <root>
        <mxCell id="bZx_TzwmVWrBECJr0aBG-0" />
        <mxCell id="bZx_TzwmVWrBECJr0aBG-1" parent="bZx_TzwmVWrBECJr0aBG-0" />
        <mxCell id="TfpT95lNpS6fOPpx6Es1-11" style="edgeStyle=none;rounded=0;orthogonalLoop=1;jettySize=auto;html=1;exitX=0.2;exitY=0.028;exitDx=0;exitDy=0;exitPerimeter=0;" parent="bZx_TzwmVWrBECJr0aBG-1" edge="1" source="0IvVDsr4xx46r5oWkWUR-3">
          <mxGeometry relative="1" as="geometry">
            <mxPoint x="419.4355466446516" y="291.6500000000001" as="sourcePoint" />
            <mxPoint x="416.68404292959076" y="175" as="targetPoint" />
          </mxGeometry>
        </mxCell>
        <mxCell id="TfpT95lNpS6fOPpx6Es1-12" style="edgeStyle=none;rounded=0;orthogonalLoop=1;jettySize=auto;html=1;" parent="bZx_TzwmVWrBECJr0aBG-1" edge="1">
          <mxGeometry relative="1" as="geometry">
            <mxPoint x="440" y="173" as="sourcePoint" />
            <mxPoint x="443" y="305" as="targetPoint" />
          </mxGeometry>
        </mxCell>
        <mxCell id="TfpT95lNpS6fOPpx6Es1-19" style="edgeStyle=none;rounded=0;orthogonalLoop=1;jettySize=auto;html=1;strokeColor=#FF3333;" parent="bZx_TzwmVWrBECJr0aBG-1" target="TfpT95lNpS6fOPpx6Es1-3" edge="1">
          <mxGeometry relative="1" as="geometry">
            <mxPoint x="446" y="323" as="sourcePoint" />
          </mxGeometry>
        </mxCell>
        <mxCell id="TfpT95lNpS6fOPpx6Es1-24" style="edgeStyle=none;rounded=0;orthogonalLoop=1;jettySize=auto;html=1;" parent="bZx_TzwmVWrBECJr0aBG-1" target="0IvVDsr4xx46r5oWkWUR-15" edge="1">
          <mxGeometry relative="1" as="geometry">
            <mxPoint x="410" y="325.58000000000015" as="sourcePoint" />
            <mxPoint x="339.6099999999999" y="325.5799999999999" as="targetPoint" />
          </mxGeometry>
        </mxCell>
        <mxCell id="TfpT95lNpS6fOPpx6Es1-25" style="edgeStyle=none;rounded=0;orthogonalLoop=1;jettySize=auto;html=1;" parent="bZx_TzwmVWrBECJr0aBG-1" source="0IvVDsr4xx46r5oWkWUR-3" target="0IvVDsr4xx46r5oWkWUR-17" edge="1">
          <mxGeometry relative="1" as="geometry" />
        </mxCell>
        <mxCell id="UJm0LbWPpGC_FNA0Dgt3-2" style="edgeStyle=none;rounded=0;orthogonalLoop=1;jettySize=auto;html=1;" parent="bZx_TzwmVWrBECJr0aBG-1" target="UJm0LbWPpGC_FNA0Dgt3-0" edge="1">
          <mxGeometry relative="1" as="geometry">
            <mxPoint x="408" y="328" as="sourcePoint" />
          </mxGeometry>
        </mxCell>
        <mxCell id="0IvVDsr4xx46r5oWkWUR-3" value="Process Stream" style="aspect=fixed;html=1;points=[];align=center;image;fontSize=12;image=img/lib/azure2/general/Log_Streaming.svg;" parent="bZx_TzwmVWrBECJr0aBG-1" vertex="1">
          <mxGeometry x="410" y="301.65" width="40" height="47.86" as="geometry" />
        </mxCell>
        <mxCell id="0IvVDsr4xx46r5oWkWUR-8" value="Siebel.Card" style="sketch=0;outlineConnect=0;fontColor=#232F3E;gradientColor=none;fillColor=#3F8624;strokeColor=none;dashed=0;verticalLabelPosition=bottom;verticalAlign=top;align=center;html=1;fontSize=12;fontStyle=0;aspect=fixed;pointerEvents=1;shape=mxgraph.aws4.topic_2;" parent="bZx_TzwmVWrBECJr0aBG-1" vertex="1">
          <mxGeometry x="591" y="129.35999999999996" width="22.61" height="33.28" as="geometry" />
        </mxCell>
        <mxCell id="0IvVDsr4xx46r5oWkWUR-9" value="Siebel.POS" style="sketch=0;outlineConnect=0;fontColor=#232F3E;gradientColor=none;fillColor=#3F8624;strokeColor=none;dashed=0;verticalLabelPosition=bottom;verticalAlign=top;align=center;html=1;fontSize=12;fontStyle=0;aspect=fixed;pointerEvents=1;shape=mxgraph.aws4.topic_2;" parent="bZx_TzwmVWrBECJr0aBG-1" vertex="1">
          <mxGeometry x="594" y="308.22999999999996" width="22.61" height="33.28" as="geometry" />
        </mxCell>
        <mxCell id="0IvVDsr4xx46r5oWkWUR-10" value="" style="group" parent="bZx_TzwmVWrBECJr0aBG-1" vertex="1" connectable="0">
          <mxGeometry x="188" y="295.58000000000004" width="60" height="60" as="geometry" />
        </mxCell>
        <mxCell id="0IvVDsr4xx46r5oWkWUR-11" value="&lt;br&gt;&lt;br&gt;Qlik" style="whiteSpace=wrap;html=1;aspect=fixed;" parent="0IvVDsr4xx46r5oWkWUR-10" vertex="1">
          <mxGeometry width="60" height="60" as="geometry" />
        </mxCell>
        <mxCell id="0IvVDsr4xx46r5oWkWUR-12" value="" style="shape=image;verticalLabelPosition=bottom;labelBackgroundColor=default;verticalAlign=top;aspect=fixed;imageAspect=0;image=data:image/png,iVBORw0KGgoAAAANSUhEUgAAAIEAAAB6CAYAAACY9TCKAAAAAXNSR0IArs4c6QAAAARnQU1BAACxjwv8YQUAAAAJcEhZcwAADsMAAA7DAcdvqGQAAGBPSURBVHhe7b35lx3XcecZb3+v9sK+LwQBAiIJggtISiRFkTK1WLbbntN2z3J8us/4zHh+88/zgyX9IXM8P/T8MuPptq1uW5YlkxJFUtxJEAAJECBA7Euh9qq3L/P9RGS+qgJBEUCZVnu6o+q+zLx5l7gRcSPiLpmZ6XQ6Pftv8F81ZJPjf4P/imGVmiCTBLOVhegqc4tib47yNGmkyukhkxzTUpdDT3Hdfh7/y2Q8ttdPnN5LzwOS1P2r5fcAskcR6Vkm/pSMo8epkv65Q8StBMfGj8vbv3QW+PbLyKg93PUEilN7oszkPsXEWUD/ggxLpa4WViEESYOS3H5Icf8cZJeidSYidTNtsbWj+Kz+8taTEPQ6UWZOhyzJ0iydru63LJvrWiarXN2WtZWrlyspUVbpVJ7KIiyJgfIkoa2/jgJnXAdePdWas4J+wQA8UI5ZxS0PxPXIItwyuiZdDuQS7OCdFwe45AiHTksX1O2RwrtgHbW7TTnC10kgjLJZ2g8orpf3Y1pWCOFKSK+jShIkiVcBqxOChNsUsMR4gc6DESH3N0MmEYIexII1HTGmm7NcrijiQmRBglWcd60rpvesofsQDuIGSyE1x0avYfP1WZucvmETk9dtanbSZuambbGxIOI3rSWmtBCcnlL3OhRqBTGmLCHKZfJ+XilWbGxk3Das3WTrxzfaxtHNNl4eFw7BHAQVoei0Owq0TXmzZeGte7S5o3JVtpogPhOhNnZpo04zOR1pt25mxXDHoK0YWsAVzKce3U+JuYwGScyyIxRWgjRiFbB6TfAZALEEwX4Kfpel7deoVDAYYqnhGQRABCKpYvUHs+gpHCFWU2SrWbO3qFC1Szc+tbOXPrapmRs2NT1l89V5a7abIVxStdm8eqDo2tV1aAjMif6pwrVHwbK9go4k0n9LqVpCTj0+B8MlmIPFIdu8Yatt37LTdmzdZRvHNlolW/G8PasolHUuAfY/Fdx15NU0netORmoiBELFdtFiYreEpi2BQQhyuYQYznjyKKRmMQUl6V95z/cKuEjC6mBVPoFnXI6DR/Bzs3jcAlkl63WVTkSCKID6l7Wk8jv0VtSkGAmhmla1em/eZhYn7PzlM3b209N2+dp5a3RnLFNsiH5tLz4rG0JHg1CIUCbb817ZUe/kL4QgUdEk7KrejgxCtiBtoHMYiMrvBUvzWWkm9c5GrWW1xboEJmtjo2tsx7YdtmvHvbZr/QFbU96qqosqGXWOnihKPCqWz0j9S6BQOnmEkeJVfcftSgTwo9olSOjUV6vCJTkLCNqGIHDKXQpYmepOYRVCQLYgagDIJ8cUeUfy8xBM0ikP6rndbQbj84oQUztifUfqf7IxYScvH7cTZ47ZlRsXpd7n1O6elSrqyTml6dV0HTikTKbnIViuTVwd65iYANdQ9E6ET5wBC/iiZH50pS+hyMs8tBrKK/kqy0zQ23syAe2WvAuZg5wEpJIds+0b9tqh+x+33Rv3SSeMqbSSSqgodUnEVfnIp6rMYQUQUFWC9kMAwENKMAFO0gD0byhd/8dhKUvqx3wejW8PVikEohxCoNMlmRVSqHauV6g1EjkL+tBzMyCiSF2bBKCXhfkNmxXjL06ftSMn37NTF04qZtG6hbblyyq1IB9AnGl3JDQSHPyDQkGqWwxF3bZl+2E8EGo/6nHgWumc+YrvKH9H6V0gCI574B8BIoO/mAWKmBAFNBjmItMuWLsGo4s2NrTR9t9zyB6690nbNLJLJZWVoqiA8KgI5c/J6qD+e/KBXOLki7gP4MA1eOvoVOJ6iVpxhglOG0XkfyFC4MM2gTt7jlBCSBBbXrJfKsIbpjMJT0tMQADoJfT8ueakXbjxiZ04e9ROfnrUqp05Kw7nrZVpyCMQwyQkCIG6qkpQga6+qU//LlBRNsFtMcQSdCUcaVgCMbKoIM3j2oJ7CK+YnMU30bEjV74rhgOgXcjLbIiTVIMg0JlzXXwHqf5GXqFgw8V1dt+ug/bofU/ahtGtEoKyleU8Un5GjM/LDHHsiuz4FRmcFsr3XxiPICTCgOlyeiXMV/B2p6EvpKuDVZsDFwKdukQ68znehBj46gDjaSQN8+FcRvYfi9+dt0+vnbIjx9+yMxdPWF3MLwyqx2frCk3LSQN01eOb9FyIIlVPfRk5bqaQ8jZHLxfzYLba5T0+j4SB4s2tFJod+R9oE2QFxoeGQEVr7OGFqhYXiIgjpMKEr1dAGDV0xfaXsgPuC7SrYkuzZCOlNbZv5/126MBjtmV8u+6VvPMX9Ie5cX9EAoSZSQFWO7IIAbTiXO2F8T21K1IgCCEMkILY1cKqHENY64jTgxCAlPnLSsQLpp25YtYarbpudaS+c2K9vHw5fOcmT9uvjv7SPj1/SnfqlivhFDZELanMXNs1AMLjgqPiETvnGkfVk9ToAFHieuk+x9BSy1OmAPbpvZX3yRq90PXXittxDSYM8ejhulT7cRxzHTFZIdcpWnO+ayPltXb4oa/Zg/c+amPl9SIFZqIkPstM9GQupNooGiF1LFQY5qInG4JvQwD9JU0QAkAc9XKVYHTXsDohSBAHI/4+gw94SwDaGp8zqs/kmKrRmB0rr97+9sev2lsfvarx/YzStq2kHp8V81vduhw5vH6Yr5BUFAwLYgTQY1CdAk/i2CRAhgSvJP5mYehpFOAIKi5hdQCM8CPF6i+9dqAirpJA/erizhpduolgdKFRRyU/7JqhOd+ze7ffb4cPPm3bNuyR1hiWPhiSGRlQFdINaCDlw8R02+EvZKXBssnQEqGP7kZQVBrtIY29e1ilJgDASKR27AIxwAsVfVvdhgtANt+V2p9zDXBJw7tX3n3JzkycsM5AzTIl1J7Mg1QzUz940e5Jq5fhOEa51ENkKgQwB9e7paAEfYYnkORZwfgVQpCex/UKNivKr1Wux6bXcRXFcOSGnyOICELMaSAIWamtVq1rldywDebHbGaiaaXMqD3x8LN2+MBTNlAcV56KBGJEmkFmgTxoEpWQFB8VRZVRe3KZHkn3X4AQBBrg4EKwDEC01UOVt+TYVcX6edn3mn1w4h177Z2Xbb41bb1B3a9I9UtAOlKBXTx11CvF0jgVio2nsCWfA8ZyJBohgAFROQxfRkJBgp/D8vPlQN4l5GH2khnQUVn87s0NFDBGCDWN/Q5cMsIpI90OLtj+dqNnLWmDUZmCgfy4LUy3bbA8Zs8e/pYd3P2EawSEmmEn/kI5X3ZN0oMt9A1picBGkODiQqDgAkBd3FsFrEoIIiMowBi/cHD1KWLg+LU0vMPWX529YL94/6d26vwx+UMNyw+ojcWWVdsLPuQD8mpwzMmrjKS1Sw2MejzoXhqf9oJbkyLNI4BqK9JQCAKk4E5YCl6x//Wz8pMIxhLoZt+ckBrTFWVF71QnaEkrOGMHfATRa+Wt20D15218aL0dvPcJO3jP4zZewlfQfeGY65V0VhRqzD/Gn9ecoB/n0Ne9Ixc2jquBVQqBskIcRyRQcfKh2iUAbTl+CMDZKyfsxXd+bBfkBGYHNLYvK7ajsT+TPuWSNVt46WgANdixkaUsiBD6Y54+qcmJ0Iek6qg3DUvg6fuwdL9fjvegRADSxCmj/RjQb+MKSK4lBH2tRFC60CJxzXQ46xLMPrabCETWJ56yoldjsW0D3TW2f/vD9tiBJ23rml1ifkWZZBoUCpmK8jKK8OKiRuEdflKMsBAATIjfWAWsQgggDwhF9j6JIYSIy9CvKwfwreOv2N+/9jfWzM/a0Ia8NbJzttCa0ngfVZ8XcdAARR9/o+5bLM4IJR+vM53stiGtK60DyqREuDUBUqIF3NpyRi9SHf0ykhRpPQr+279eAqKyLkiKVwI/Q4hVnruJwjsj/H1tRGYuTwYYKCeZ81KubM0pjRWaa+zAPQ/Zg/sP2Y51e20ou0aM1+hCIwgmm3xIJHAcXAA0ckAIqFFCmPVFp0hztyAhYMXETxU+K1UJGaKxDkv3PcaFQMiJ7SwNywI685n5e/PYK/basV9YK7dgnWJNMfNW685ar4jzp5JlBfIMkyQEEFBDbmkEyox5gCifn6QOnTs+IkZqC2FkkqgPaT6OSwyMlvTL0w0ImBHBo90p6F4i2AGR97NA/TiBjnDCeHBeFoQjM5v4NoUiZgMBb6qHqzwpoUpm2LKNsrUXs7Z7y3321Yees3s3fMWKPfkJDDV7Gk6KNgHC3zUsQpB2AkwLQ8zl+N85iJbyXBzyjrh++sCpT5hBdLB2SIguBDrNsEtM96L+MwVMwKL+puzn7/2Dvf3hq5Ypa3jIHH9WwuFqTA1wIkNEkS6pLw4QjxKDiAFeg/+SyI8J4DT5OFrE9kkcMcTRdSFSymWZUsL5NHVPxFQ0vY2ALfZpY8blSutlMbVLvRSTCNxKoFwEC+GkVo+JOpcJpud0beYXguTcc6ozqM5ct2xWLdmGgZ329EE5jDsel3AINwnBQHHQU/vMJfVpmM1EGxAeAxNOaZkrIZ3g+iJQ++qUrtNbCIHOnXQuBMHwAJ1JCFDF9ZrG9Kzvlxpq0ry8gCn76Vs/smNn3rb8cM/qvYVlzCcvdURJ0X+YcIGYSQ0iWJAcIYh04ASduVpyhKRzum05lUw7y+rKnPgyNHcYb3tAKCKztyGKF9AqotWLUKe0mWS6KfmJNAnjfeoZQtxEUJ9F1DEt3wvoB8ArcgiBRrCBaJcLT0F0yWuI2xIt6xWZhmHbMnyPPbz3KXtgx2M2nFsjh7IkdKVFVBwLnyE6DKV7VsyxWPVPIgRLmiCGYAFpc6KMuIqqIEpSqQ6oJ3fyMnWrdqfsJTmAH5x+09qFqtq2YJmSeh2LQ04o8qmOpKdgU4M0TkqVEfEeo1NqTJkP+LF/rbzS5PhOzMtjRjpifOAb5iSfz8vsKHXSs30Y2kULCB9phEJepignU6S8ECs0icqldzJZA6OJl4/iQtXXNGgO2rHUFvBZEoZfD55KaTvqPPwxT1BGI1WlXWeztm18jz376HfsKxKEko0Lf+HYQVMpo2jZ7jaEg/KJAIw+QrA+C3cgBM0kFTYrKSyJIX+cpgWpsek9BSSym2n4NG/TFuyVd//RfvXBS1YYkcLK13wBqCtJ77oWIAfESomHJkmFIMrDBwrmx/FmWCkQrBg2rNUTQXxoqR6hrsJ0SxSpFC4USY/mTycEV/tCod0S/p2OFYtyTCUwJJSj7OsGMBwhQhjarA8kmiUKQ8QYGeBTJKbnluCtUnoFh7hGAMCKrWZQoKA6iiqzwPxAVd2xMWAbRnbbVx/4tj2w+2ti85C1GlF1uQSPYj8VPGPG8Z9ACNpJKm9dhCTGC/BC0nuC9J4a1lBPb2XmddXyGcA3PnzFshV5BZ1pObhijrRAs1v3tAEgGwLA4o+Tr1+ekysIpBBOsW56gjRRHwsBPVaOWVK2b3XzEOVTD3+wywXAUyXggqF8MlPOIN2EwakA9CQkjEyYug281GuVh16rzAkSwl9DuZwcyxgmErmiFgF4Uwc2POoK3yqEoNeTOtdQ0FjIai9YSXJYUu/u1mSaawO2a8PD9uSDv227Nz5oleywfDB2VbJwBR4ttZ+RwT+JEEjEHVmAY3ouJL1rxnkEQXK7K2ewlZ2Xxz9l7378hr165GVbbM2I8ckEUU6iWxRh1UCaHPkTBiXja8a4KXtI04X58hSjpyRHF4IAThMsBCKjmJYR09xuq2zsIz007GROvUc4inAMpdJ63E9Q6MqfyMnJKpZyli/gU0iDSKPAaN+vgOpPKnRB4Oi4IRKKV6SvEaANvF2BQ2BIAG9CImz0XB1TISBNpienT4IgbazLRVXfkGDJVLVZYlpjucZa27H2IXvm0G/bzvX7LdMWjhpCF4VHjnGmz60TqO+zcNtC0I3urmKQLkIC3gYVroDKWl6RN01moJGdsiPnX7WXj/zM5hYnZeNYHKpaDuHOsbEzVgA9q/cWVDUEE/NXCEEwG/K6kwnzPU53XAiiIeEUEqn2KxQzRd/Mhc1m7b+l0Qq7gdoNsVI0LxbkXZeHrFQs+ybScklDrpzsqISGYVtHtrXekNmqLdhidcEaLQmsCs4WhJsEA1w6ME4dzjtdHpwwFWKUsPUWOfMJMYUctErp5ZTSWaIBXAhQ47r2xlVk64syTR3LF9klJT+qLfrJ0ankRq01X7ZCa509vO8Ze+zA123T0A7LtyToEj78GYe0+lvAXQgBEooQpJlUMuIvte0NA2ePhj0Qp2YXqx/ZS0d/ZB+efd/yJRE237FGW1pAw8GeCCixVgMTDFcIQaIJFIOIeYkw23uZbus8rsmYQEiEovSnWznhVdDQKtPIW31BvkG9LdtesY0bNtvObffY1s3bbcOajTZUHlGvKktYGA5Gr3H8E2YQmNqqy2xNV6ft8rUrdu7ipzpesLnqnNopTVJgA4qS6ujDYeVl93NGw2JMUjz/EG1bWk9YQp67S0IQdEYIchnhrxGKT7FLp7a6VQmbvH75KC0N2jJNDR1lFoYyG+2ph16ww/uetrH8Bh9S+l4KqlhZ1Qq4bSFoY+xAqq+uRBgndjALxvkkjqQ/wwQPjVZDFttT9vNjP7I3T79o7VzN430iQ0SKGS2IkzISBkKkRC17uarJHTM5OdjgvJR4EQL2rN1m1ZF6VYoqZ0dPV64LoVSAmXmrzTWtOd2zscIG27t7v+3fe8C2b95lo+Vx6YaysKcOmEJLqBetE7ikNIM83OcXwYhftQMmK1ydvaih7gd28pPjdn3qigRdNntQOGIKuzVpiqpoUlcQm+VpttiGLpWRl+ZpthiN4FziM3hrk9pC8NBkPtmjP/DADKZDaQJYsUdxID9ivYWCjWU32QuP/r5GDCw6jVq2XRaD1UL2ZHoJdw+ZViIEjNdXCIH33II1m5JcTqUONRiU7VSvac3bh+ffs9c/ftGu1E7L/uP8pQ0IAaDlocq9OSpzuRCE+DLMYY8gjWgiEBK0QlHqWrau3aLHKJ2877ZUPGp9qDJs0zdm7Mb1aduyfrs9dfB527/tkI0OrLXB4rB6u3qO8tAKJ5Dwj00by/+8Oj/DmYw9BYoSLsGEJSGgxcx8zrWm7Pz1T+zYiXft9NkT1uzUbM36YSsNt63avmHztTl5+l0rDw6pz+RkXurKr57uKjvqXKo3TphpRCsgAmgOBoodaRSEAT5Qd0Y2TfJmpe6AZaUR7t30sD338O/blpGvqGWD0iTgDo0Jdw83CQGI6VLESTnf1fg0tnR1ZO8XdLdq56+ctJff/wf7dOaktQcWhDi2H6bTm8RUHQFHLVqtCxBGEBThPUC1stSsenl4A7XlGkACUFRvlzy4XS9kmDkr2vz0os3cmLNtm3fas089Z/t33W/jmS0ixXphWlJ5iK8CMizBYeEm6/v5Ug0gVIRQeu7IpSE5hPOnoITMbfhWYbWah14IdZu3K9Pn7eiHR+yD42/bYveqFUbbVhjISQAqNi+/otqoW2V4SOVkrNGUw+fmUNiBB50LDHSE7RkNrFl6RhC7aoN0nnAQB6hXNLWeOp0IkdcoxKQNSu319lWNFghDuY0+5R7rF6uDm8yBjk4UKCEBEDEhSpMhjBDO5hve8DePv2hvHPm5VXOz1h1Qr3GCIdHK7AJAIV6QfoMIIVROYQUYo/uYELetYQfbcu4adRZYeBpo0IdgnbpZdYYNGQP2+MNfs8cf+KqNlMYknnKaesNKM6Bz6el++fI1pJpx/vpoKKwgVKC2dEwhzdJHE5FGKwiJjNrv5w2bWbxhF6+ftfdOvmoXJj9WV+1YtVnz0VpGvlG9LRNRkCaQg9nG21fBIQQEOgL+kGLlXGdU7pIQFBWLQwov2IpX92GjSRMWu3IiF4dsrLjLfuvxf237dxxWddCAB2ho+93DMiFABXEUSADcwdEdV0xiFhtDepk5OYGv2StHf2yTC+etXZRwSOOF7U8p6mT0vygsIb+oGg5mQmkBI5wuD5t02vLa6bkabskO8lQQvb9bZ2tW1zaMbLVnHn/e7t/5kBXlUTP8Y6k128OxKro3zXpBWq4fFcD/8yDa6acrwKMSFP2JIZ3LrAt4KKYhCkkYvK1tm6xfsdc/etneOfamOkrNR0WtbN2yZWk1Rk9yNl02AZcqNBNCwFCWahIh0BUCgCbgHI3Kjikcz556AbuU6AS59qDV5/J2385H7ZuP/55tGdxt5d6Q6ICk3D3cQghAlm3VICMhZKZMqGUKdbtePWUvvftXdvLcryxTXlSD1ZM15MI7drL1BQGI8+XKys8TIeAuXjl1ugerhhZlQ9mA0an1bHG6Zu0Fs0fvf9K+9eTv2tqBTSqePj/kq2u+XVtCE4wW1io3rSll/ucKgeMJNvRGTvlJws15FMW+AKadGcohuBnZ7JaYw4xpLbtopy5/ZG8fed0uT37q0+Vd0SpXkYupYXKjLQ1BffTWZULgtUkA0MA+ulA8j8dGR0GbRl1NDWF5TjLPOgfDyY7aLqfw64e+bU/v/5YN9tZ7h1kNSAiYLIL5ocZRWTHMwTYh7wRJdnbe3tVI4JUjf22LnU+lAhcl7eTAGRO2OvOWJZDoAoErfr+3/JgGnhd0GsmzpkdLk1q72rWx8hp75qFv2iP7nlANOH3Dcks0zu+h/ovWkYqEXtkyREvK9h8EQqeU6deATkRYF+e+uYo2h20GaAMMSmbg1HieYeEezHBgAskjRR3FtWS7WTfFWzo/cdpekZ906uJRyw7KnpfqEhFpT/lSOJte0HIhEJ3Di0EIoJWLZKTrg+JQCsKL9MwPlPJlqy82bfv6e+y7j/z3tmf0Ee8UqwFhQi3RIzOimjsvHugBYojudTQUujxz2k5cfNdm6tddA7Di0BFyODKM6b0zLYMowy2fLpIGOnAG8ZnyFYE0jOqqMLZV5ToVa81l1NfX2TcP/Y59bd9zfl6SALDrppQdEqp5ay1CPI36fY0+emo6HnYB0BF83MFT+9IQxI77wBJWKW4IkOJ0iXVhnwvMDmeT2yKXemUmK9XNmgE9s1uSui7ZPev323ee/H07fOBpy9Ur1q0WA19X1UmnSv6i/VF3xKsywAWUEBgyQmIEw1DTd1/pb7ExLwFrSeuctVPnjok/VXXQhpx37qYtIj+CRxeGt1wr3rVRCDi8jnhh9/0f/O8/RBp9gyQxSKkaCCqscjWk7po2YUfOvGTHLr7q28M68ubb8tp7zHPLeXLSQjwdfYTjJdFMqTfsPJ66L/CoeHaSyBnM6ijfCVWkkLViZ8AWrrVs48BO+4Ov/092cNcTEowh2UIJgPyAHOpQyOP08QyDinRGI6i+E0l//iiaCNbSGB01wGPu9DcCf85I74E4Zvg8OaVXfKqK/Ziyh9boN+EPz08gbKwp0F7qZSUyr0blIarKHiuP2pY1m1Vv0W5MTGko3XJBbYu2HXWcXF51q4y8CsWr77Rb4oDK8+qizqWABlK5qh9NhEBSCZtxcKhJn5WzMjI4ZgMaOndpD4Kp23nSyJ8guBbSPR+dEU0xtNC1kyJ0FblcAnUkjpBAyFbbJqrn7eIizwTO+gYRELcMniw2TEU6zjdlTqoD2a5awiY2aiEWx4rdNVkcL5mBomxac1YCMLzFXvja92znln2Wk9c/kBmzgrzinLxP3wXk5dGjxRAdedqYOvN5GCr1rJ6Db1AsyobmpTHEhHq94aMOmorzWVBg+NiVA9rtSM0yssCm4mUjrMLVBUbleQ9sSuVr6AoDWWOgRy4sVnWPh2hYykXcs1bgUbN2XiOXtfbofU/YoweelBkbseqccGS7mExdo85IIPo9GjBXgH5fBKRIgrc90WgShGvTF+zM5Ee+kzsZiQa9QV4hxFjp9efDX10FRHwaE2LYVxOgF0wNrcHwpm2XL1/04Ejw54aKsFQs+TxvXEQ6JoJA2MWJnoT0IdnqoWwGEHGY9OjWszZaWWtPP/asPbD7oA3lR8REhn0JIl42ZYKTnzr4Y2MExRFYHGLrNsyD2DCpUim5kMQmE3BXGQoIC/MTeZirwPIy8a76/b5kXfeLxbznp0wCAjY4OOC4xAQXreNKaptH0ds5Wzu0yR6495Ddt/uAvBcNGZrMcZbVH6XNSKdKolnLGnPH0LOZ2Uk7++kpm565LhyYq0Gj00Y0FXSnfFQIzPRMt4RMu1sXXZWchrvKiN4tDS1TULeJ5jn7xZH/YEc/fdkdHp4laEuFakCsslURFavCnIKbAq8MQQoN4FpAkYgBRqYg4aEGX1poaWRR0xCvNWBPH3rBnj74ggglB9Dk/DE/LnzoZY6fQlK0cIwYxD96K8Op0AAwLoXZ2Tm7ePGSnTt3zs6cOWPXrl2zarXq91g1HB4etg0bNtiOHTts9+7dtnnzZjF40IULQjaZ7BGUSuF9Uxf1xP0QcJ0milTsVZxPn/tC2qJdWPjEXjz6Ezt58QPfecXTVQyJuzIDtAtdT1Zv0x0C/lZ3MWvj+U329MO/bYf2PGOV3rj0GsIm2vOMJQllhnkNDqM9eAN1GAn68FNtQZtLCJrSLmqcMzCcGFRHW1xqyuk4fuENe/GDv7KJ+inLSQgaDI00LMii/pzrcvASAVguBDiMyEpXjHJV5HWodwoLt7zsi1iQTzFfssMHn7HnH/+ujeQ2yk6y1VxDxeyAysMEeGn6XRICP3IiIqpID/Rk4MaNSXv33XftjTfesE8++cQWFxddQwAwHjMBI0NrMFsHI7NidMnWrVtn+/bts8OHD9uBA/ttaGiwrwEoPzU7XLPphLUUoSAhkAAoYEo63bY1WovqgCJysWGnJ4/ZSx/8g124cdqyFXwAjSfa8quYEvbxJmy5c8A/KiZ7E/dte8S+ceh3bfPwPe5gy+jpGHRJX5PDeV8IXGMw5kuFQDrMCe2SLKJCcqVsaQxbz8zaL4/+2F49/nfWLExKmtlPiDS7FQyVo5Ipqi8EKsvLUPDtU9SKIIjoIFEQUkx+dDUMbEz07P5tj9lvP/Pf2abxnSIO6A9aJc9uWxFIvAveUo8uVICKSCDjPoBa42r//PkL9tJLL9nbb79tU1NTzlxmIWE69tvrT3oxR+57Kcl5o9Hwns/90dFRW7t2rT377LMeKpWyl9FoNF3TIDA0lMEhOg5qMGvHnkvaiAltZ3iimmHivB0594a99P7f20zjmuUH1blYfJJj7ELgbLkLUD0spLfmurZezvS3Dv9r0fKwzyOwebbIDm5wcXyWwHmdDARSIcj94Ac//CEGKsatSqJ/PFlmvK7NnbMPzr5pNxbkD5RkBpjcEKdJ5zN0CYNSAfL4iHThiGEZzCMCscA9k7JiPaKWsXXlbfb1B75te7c/KCaxxWrQijmpY7x0fD6EQFLgjYC6UbSAONl09czp6Wl78cWX7K//+q/tvffe854Pk2A+zE2D50oYnoa2NAHCQdpyuexCgxAgDHNzc3bkyBE7ceKEjY+Pu9lAE4TPIfoo4Jj68FjF5xkFoXBAEw2lc3wgyisPlKzWWrCp6UlryxzQW3yDijI6He8S2BhDhR0NsUeGx2zzum0xkyonVJ5OjIZSSGjHwbso9PQrceQHkgIuVjKvJVVetzOXP7Tj596VbyDvs6LKsCNwxtmi3r+MKUslxF2YhjOIELDUyk0ExWe35Dx1FjP22H3P2OP3Pyt5HpL6H4kGdOOBFIB3/fQBYusyyqawjJ088bH9x//4V/bTn/7Urly5oh5bcUYyKoDAaa9PjwBM5x6AeSCkpiHVFqnZIFy+fNmFC79jy5bNNjIyopwqUxohp9ECgkBpvPPI1ysQXgXKYKYPvBmR8IjdlcnLNrc4bXkNcV0YdG81QsDEFX5Qq66jfLTtG3faCG9bk8PdaTHBJJ6kxSekjO4T7YeGxIg+/NBDhDvSSwLZeVYMbyxcssXGlAuFv1uARHDCAbuYdNdUMCg7va8Gsj+AsS7jYVQmPjIrX+3Fnu3YtMcO7n3URgrrfFIli3CwUUJFFZQnL5x8D4Hq9CGh1Cc4wyT+Xn3tV/Z//MVfeG+FWcEcZU96NkxIGZ8yPWUwAcEAlt9LA0A855SLqfjLv/xL+/f//v+yS5cu6Z7arnqAvBwv8GROwJueEl2k6bXUjg7bWdgvuM8e3fe4DRXHrL7Ylm9U0kjbFyXuDhAgkYs5S97lMDF71a5cuyjyiU6KZ8QjMgmJSO7AtTcvQVSdEqTl04VaSuPZUkXB0ws3bHpRQ49sQ2lpYDSahEhYFM7P8lqggNfi0FHvQicRyyZJhhyN+baVcyO2b+eDtm5sq8qSCvbNmonkRlYHBAh9wo5gdijhjDFm/7u//4n93//P/2szM7NJyi8PYDY+x9DQkPsbf/EX/6c7nLwnyUcIwrBcFENF+YbayHwIu4jpUCKvt89ttARh4/h227R2hzTegHXVU1mmXxWIsPI+1Hc6Vm8v2Gx90qeqRSVVjhAn6foAr1I+LvkjGmdgqwPIxLardk/+wOQFn4xg36BvttB9KVj9kDG1/4pNbf5SKQqRzl/wJH3kAz31jLy8/U4jY+tHtvjjVsPZcUmhbGkqAIk8eV0qhqrQAGgCXkiFLX7n7XftZz970a5euWa1al0p03r/6QENgBCgNegoaBg0z9/8zY/swoWLzviWnEUWeXiqiU0yWABComjUAOEnh5eV0c3j2+zerff5ukieCSQfkt8d/kGjmISDn/X2ol2f4e1u04qg0ywz1xwhrugYQqAIrzcCoqoTQgKeuG0zcxM2Mz8hRqAJ1IvJpx8XBM98MxCXCEdSnF9JEPCaCzxT18r6RNA9W/bZ+tGt3kNYA1henmdNLjtyDniFbUvHtkzK0aNH7Uc/+pFNahg4PDwqpsT4/cuC1FFEABAGzMjY2Ji9/vrr9nd/+7dWW1j0+Q5JqtKyrUymgYxqEtPakEq3XAOyJ7BkFds+vss2jW2xYq+skVA8eX23AEvZjZSR6qejTs9O2PychACHVZ3Zi/big6eRQ5qfKD8T6L77Mj6TJuyJRC54ncxCe8aanUUXAPwEGhcCkIr450G/Zi+8yxhb48RyrmztasfWDGksvvmADRXGVCAyGG6Kh6WsOpcZQAPIAy6WCjY3P2s/f/nnPunDooq/S1BM+bIBvyD1MVJhGBgYsLffett+9g8/k3DnrVLSeF3xvA6v0WlIk8KEaJMvyjEslgjwjMKmtVvkxe+QVtQw09+8ljT4DoEO2SWvnM6ehppsYFmozdvM7A2hggaD6Qm4KUcoCC6mgVwSwCIuVJ7HKc3c4qzN1uQQSgB6ZJQu9yGNcygVBM6J4y+aTP6ARBvAYOkrn49ncUOagF6wUWoxNoOqu1CMax/P5jRhuhnhyzOzhExLC7z22mv24fHj0gAjQVQcMu9mXx5gfhhpEPAL3HcSMI8wqyHkL3/xsp04fsJNng+5RCOeB2BUhPDSnpjWlklkAU2OIE7ixsHNNlAc8Wnm1WgC0IEWUJ+NuY1m1WYXJhO+RecKspJieVhJN1E5IgMV+rzUysykzc5OidC6dn+ANCnAYDzKqGAlKEb3ouIILNrQD5q1po0MjtiOzTttqMR7eqRqGcvCdUcqESKXnkCWx7pxDo8cPWIvv/ZLm6/x0gt6lm5Lw8Ry6JcHmALmHNpyRpmP4JrzWq1m69eus8nrN+zVn79s1y5ddrwdLwCHtqDAddpf8A18lS/r70reumGbbq1Ok/EuaIYCrslVf73V0Chh0mqNqtMmXatx/oqPIQyfBRk8UglhIcuSJzuKZxenRHDeKLYkNeG4RYvIQpuWzIMuhESs7qV6QemFJD2IIprVpkzBWn+nH0/tuCPFDakn2O8i4KqKa0AEkwC11ZjTZ87atas3rFSsqFcKR0YdgrRnflmAKWCtAebT+5lEwjRgEhYWFnwjKZNJjBbQeF2ZKB9K4z9AF0irA21jGIn6Z7SwdmCLbRnabeUM+w3ESAjqfLh9ILXcabFI9GLySsd6r2bT9ev+Njhfo2ADjOqGzvErdntwyvdBWMm5kr1zpkrtt7KLNte8YfWOpMkna4L5S8M3b1LgzVoDj05zJ8OwREPJ5MET7jOkY46cavLZAdsgW7h27WbjrZ6MkJFMZz70yrGY0vPGuABlCtITZTt+5KQdfe+E8pT9UexyAWdSwiKBjRc/fHmAkCHECAGmAQEgjmuWgQdGhuzixHV758gHVl1siilFMbZiBYRc6aFVrDJKa0kzYA7YGcUG2TUDW22ksF7OssRFghBvWFfbpeE6vh9CvtQyrRidQ3/QXVdAVg5zMdmf2eGJqcGuzfSu2mTtqtOU9z+xLhSZitKiCvJYfTug/tPgmoAOhR1jfNmSJiBwDvqkir8kj2Pg6OiIFpAguIYIxgSyqdTpllSV+GrFQsXf2lXwhSEJFVIKgiq03ygRl0A03xNoiShXLk/YxHWpYgkr42pUH1O8tKPZbChXmvufH3wjqoT3oszB2bPn3O4zecRbVPPSgk4vF3BOFJwZvI9owMYHN9ro4FrRAfoFhd13cn9HR8/w64GlIbake0+nExW61sjU/GkqOrUXAXOp11PhPzjL457TLuVUAjC2JTvs3wwg822B0oVkfBZUGwIAQ8vlAd8Fw/QmKrArLKkinTb1VTn+xF0XMd2cnJy006dP+zw+QG8knjSe7rZx/HIAIWAYefHiRTcL4AekDitmI8UXSHEmfmxs1NckuEVc2gHStE4DP/v1QN60DvLjxDboHCqGkd7tQJae6gUllbJSVq9LkpIGfD7o3ucx3wFGhWS7EJQGbXhgTGjhIyDpbtG8GOrp10exahCrdRcunPc1AQi9HB8mcTh3f+M3CcIB3HAUEYT5+Xn3V2AEkDIUAF+u07iKOsXw4HBovuQemiCm8RPmJe399RBpPH8iBFWNEpj0u124SVTYSNFwIgPLG/HrAc6pyycI6UIhUW0IgToID4sODAwrnmEhmzWTPfZkdYFZqov5BYjBJhAIy8KQxycE+2IB/ecB8CGA+8SEzJZC2g5wTAFc+4xWesdfna9YYKk7HGfPp//VNIsyEEI6MVrqdsGFwOt3HCRJzbZ7wbcHYPxrsHbjE4wuFsuuDcICUS3jbjQBFIgGoIswCwCjgIWFRccFAkI8AJWbaoC0x/2mIBVKJpJmZmZcaHEeWVdYLgw3C23ExXOXJWkS0nr7laafNv5vG9LyoQ80o5zbhRCCZYFFnzbETRD7YqDyFF2ld8ZGiFe8KFrnDO9K5YqQ5Z60gVcN45fqoCEedD43N+9aAK2EdKdESuH2cPtyAWwgNkLAUHJ6esaZkOLWb4/Ccnxdg0j1owmKJQkBXnzSPhal0jz6SXLcGqJM9GhSl47gA738Gw7u2H8xYJy9MA/6oxD3enVzOeJ3BuST2mPsLEHALBQ0vMtnGU4G830w4ZoipN9bwB3VyTUCwFg81Uo0EgJDQDQA1/S63yT4hzIE6dARgQVHZ4gCkB5pVxpPGxhJsN/A37rm9Iq0tN3TpQS5TUjLToMvwSvcDqCbvcfyPD27ZZAiv8HcQdLIuwX3/NXzEQLGSiCmE1kJHXUrekDY1LTREKjgEzJs52q440VcigtHiE4eCP6bhNg1nQxr1bZUC3BM6YiWIBCfgjMq+WNKnE8CAghDmp5nJpTJ4z8PgsnBcOjCRz/SeQ13MqH7bQDd0uUQJNM6HclVCgBAeV6mcKV8EPN4r5HoaASw/H4qxQQalwoADUz9Ae4tJ+xvAqBRMMKc6YQULxjxRfhxPzpKtCfIspw2tw9pXdAq1Ua3C2EOfFgCQilSQfy7BxBQfvV4lSSmtn2twZumOBcCXYNoSjRvBNG6jpdaR69IGwek6VLcIPRvElJhBR+OgU/QENy/CPrtFizRIc7vFLwcBXDxeYo7KEOs97wuBDCBvXOsfKUNWw2oSf4HhDiww5WZQoiX3PeGR5oUEEqWaxkaci9ldtrb7lTSv2wAH3AEX0xViu8XdaRoA5QJYYq4JP42mrecbjfT8E5AHRSHRWc9CslYXsOb1OG684JV0PL5Amx/sijU7NSt1WmohriOe56IH294SgjmCYaHh1wQUjtLz+I+hIXI6flvEsAD3PBdwA8hSNuRhl8HOLgINZ3B03ryJM8dkD44J1AZ4MOu6FQQbwfcHDjv9MdFUTaXEOvgd4DJLSB6uo4StXq9avVaVTEijgsCCOteUkVKBPIArA+wr4/GwGx3lpKQOoZfROQvG3xHjoARDAIAvqmmAr8voh/5fGLO6aDukQwPHSDHF7SP+/3kOsE8QS+cabbjeyG3ARKXyByF8SCHxq545F/QgF8LqQZQ8GlQlVWtLVqtWkvuMwRVgxnLqmIXFv0BEIIAs9esWeNLuGmPTzVACl9EpC8bggnR+3guYePGjf0eSNwX9UYEgOCth95qDk3qC89tto/0nlLp6SClIm9KZXnp9vILSxGYWTqlZ5MHT9eyHdqHFxTOphLfJyDmKPjwThBoQoCYU4hHn6mYq+jtbBHz9DkNQdtVazTnhWdTdygzUuEjEGi3N0aosMDIo14IwLp1612Q2C5FYAsXr7cB+sT6DYFPyPRi7z8CsHbtGh+mAfGsohriW7oInNNutdnxzvqQvKn2OJ30JwpTqucHvoiF7C9sQxt40Gv59g8W6EoKMghKocBmRxcIRI01RMwPjvdS6RqVtSU9ZjwcAd6D5VEbLI2ahq+OFC+l4suk6evdQBVPP6e0vGOAT7/7pE+PR9UZvuWUVqnIw/4EHrLId63Wmrfp6jXjpQo+EmG7lZxQMFcqNUj1gCqOlfwSUdN23rPbNm3dZPVmVdqBfXMNSbnMgT/LwLuDohH/HECvJqCVCPCRXU/V6oJrul07dtja8TXCCw2HIKvjdJjoYrELDSj8eZi3Syfo2UKzbvNqV459BmoujIyvvKsz0TCvD98sYaaCawzRnmbDQvYQtIpZ4wuyxVzL8o22lZplGykM+3sTQNI3NOmIrlBqhXgBFwKRCoJKF5MSTcCjVMVcxUqFIfkFvBcICQoEQyMoXaIJAJBBVAK4Ir2EyaWdPCKWJIa21FuLtlCfUfUN66gHpcutfUgcU68wCePjY7Zp0wYbGq7oFnUzmymBkd3lBZdfNqBpUK+ElPnMU2CqAJ5RxAfgaea9+/bpPJzWeDycSS20KbRAwKUN4CVM0b3JmUmFG06j4OxN9LgNQAd3vEOpaPYVtHpWzpStkuflXpCQv+WAPkBrwLPQ2STI+lw+l44HBiFvA8UBf3Oox+kvfQexZ+rDyisgbQuawtsEY0VIloUbrYZNzsX+Nz6W6Y9hUabKZmdN+kBnyHwEPhp5YN9e27Jxk7WbrYTx2Nq0h3wWhy8LEAgCTh8OHeZqYaEGNnbooUN27549gY5CCAwEgG68k4CHQ6UhFYVG7ajnTk5ftqmZ60pDursEMTN9vQ59kS1uA6WKDQ4MqT5d+w/pSEyi5dRdoh+elqdJJz7ECpmDISvnBv2FC7HzhQwCJXQXxGtNgvfgFPo1OlCeN9wrNDVc0j89ITUqjOUnREp8iYSpaXa/wTRs0+699x574IGviPFRn79NhPl2ib9o7XFfFqTqH8bT+2kPPT/VENNTM9JU2+3hRx5VarVHPgtMQQOwkhhPGLFeoqFjhq1dFKp2ZTAFN9xHShp75+DMZy8jlMOXUuHi09DQmA0NjrhQwNugTtyLEDmW003mjEgSebl+a6AyYGW+vcNnWSQErglSZveZhDgoLhWIflsigaeWBEA4QqFUsPnFWbs8eckfe0e141/E/kWCotKgrOyWZfRALQ8//JDU7b3uSfMyJzapZHM8Gk8lXy6kZoCAAMB8XmTB5puCtOUTTzxp+/beF+2kl/NFWGk6dk7xcitei9PpsoGmaC1pj2ZHWmD2sl2f+VQGYtHpcLdAna4NoJJokpegjY+ssyFpAqf/CiAG5qdhCaSBxQDd933zCiRlG9jIAN/fufk5QdKkSEdhy2Stf4yi/ExIkksIyoNutht28fo5m1q4JhvJiyHxUtP0njoJlIr9Zdq4a7t37bSvP/OMPxzawuFS43lZFUuxXybAdEI6CkEz4BMgjNevX5eW2mtPPfU1qwwU/RkJvqJelKOWk8Po6aU9eECko4A2zOBL5Np2feq8XZk8K5OIw3j3QkAtrF/wgoxeJ+e+3Jrh9VbKDwhn+KoUgYpAJ2gBhdQFSDtxlkKwX+mbsuiVo0PjtmZ0nW8K9QdGldHttYjvPVRFIH+xNyAKBCj25kalyNDr+ZLXNWmCi9c/lTvKa2MkBGQh3XJB8CMoKjieGXvwwQft8ccfl6rD3omoCmxJ/zIBMwA4/mo3AsCuHZ5B2Lp1q33z+W/azp27HR8ERJzQf9sZExQSzxNFy0Oq+A+NXtWuLnxqs/XL/qVYdwzvAoJeoo/qgjfddkbMH7LRyjqZCHUOmAvx+sA5vErNwRJkEQA8Wfp5QMYGssM2kl/rL43IdXhPH9ogSZFyy6+i4GBXgMcmSUCOcTNrAR2Gk+LZbG3GLs+es1pvVk5SjJEBJY3MDsqsBnLAFjMeHxketickBOvWr/Mnk4s8FMLW7C8RUP0wHmEgwGhegoFj+MILL9hzz31dw1UlpGOAr+OvUYEcYfYJeBOiGer1vNcEU3DV33zKG0wyBZ4UujshoFQonxX//OkuvpaSlS+n4aE/5OJCt8QLRwIiO6FXgnysdL2eFyqJqLJbMHV8bIOND24Q9nJwmDOQ+g3BojRdc3DV4ZcOiAIyRnAEdD8eFhEBRRgex88WO3bm0kn75PxH1ugs+IeseMStI0Gk5qXykG7F0YVUIjaZYdgf/eEf2o6d2/0pKfcpkl4Kk0jjthnKLwPaRyBtatuZt+c8vQdQBvEcSYsQUBbpmMZGANjo8r3vfU/hu1YoLtNEXqc6iiTdO4UuoRH+GlsDeKiHr8Z9cu6Enb922nIDuinTkNLzTgEy5YQjk0J8y4x3FW3fvMfWb9gqtvCmErVJvEwTp2S9VW19LsJgJmHYzMAjYutGN8ssrHO/gE+6xiNfiJezSo2EoDpLSqWUkDqRwDWLLkQ89uFjG+stXnejRhe7NlO7YRfnz8ogzEqlMxvZMD6tzxPIzApicPzxNAUc1/hkDTtwTGbhAfs3/+YPbdeuHTY/P9e32TAJhmGvU6ZyDwbCWHpvuiMJ7cLjZaFlQnDIw3Q5i1bcIy590xm+yI0bN/ytJX/wB39g/+7f/Vt/JrL/hWEnoVMgvXCgj7RFoxoTW2obbyE9P31agyFehsuzAap7KfkdA7j7G1I0uipKC4wMrrdKftTf+wgeaGCYsqIKXYB1YB5nmPkEdCFiegZhxtPD60e3uF+AjXFHT5WSDgJRGh6wy1EfiEdQEAQdoILSRXJ6ezSeD2Z9fO6YnbtySioSYqhXEtAFShdPyAgXRgB4183omRSD73Lwofvtf/6Tf2sPHXowdtaq59JLYWr6xhLSp4xO1fryiZ5Uc5COgMDA9FTdA4wCyHvy5Emv58/+7M/sj//4j71cXxNxIpMypUMakngO2bY6Fq/Ya9i5S6fs/JWz8gWkjSQA6cs47xbwPRi5dZtZG66stU1jO6yUGVG8tBFvfXEkgmd9cF4QdEIQCGNiBHBKgQkHPsSY19h24/hWn0LmnTi8kAHmR88hA8RLGuyAxOEDI1lco1WwpzG2ZojIREm9W7OMtMGN+av20YUPbGLxkgtCvVuVnWzIbwjkMSw8y8gbvjBZvIsA/6LZqqtH1zUsu8f+tz/9X+y73/2OMw0mweC0x6MReB6Ac+pPe3wKXCMIBOIREFYCfQVO5XDNW9COHz9uBw4csO9///v27W9/y19kSR5f+Emb7qCLxPsOZ7lrjeaC6uYrZ3X75OpRO33tuBxDvhgrodBoQqZ7FYApkCZrqXPJHGxYs8U2rN2mGNYNmKCi8OAJx5XA9VJ87s+//4Mfoj397d0CZyy9Tm3ivRJXpy7atalzluObx9hv5cPuZVhkYuZOEdAidQ+jv3pBfoY6hJn0qHQDK8MoXh3fWGjY4MCwrR1nJFJSlhi+yK1yreTP5gkRnvtLew3MwRdguMnS7cOHHrb77tvvQzZ6LAwint5KnfTyFNJen4bU5iNAQDzelrHZ2VlX/dT1h/JB/uRP/kR17PPr9L0IBPK6yhWoRKEnwYX4RGH68gTeAvepvXn8F3bpxmlV0rBWVkNDvl2EsLjALOF4J8B7ndr1tuU7w3Zoz9O2f9sjxivsoJ+PUqGZ93bqICSguCXhEH2/LyHwr3h7pJJiwzMitAph1mtmYcIuT39infyidXySRwXwKBkPsopg7pzpF19gSRAAISimi1pyCEU8neMg8R1CXnLNe5Va1bY1Fzs+HB3TsJTJlbY0ByuYyDkCyQuYELyYhkV9UyTeNw6dylIVGzastyeeeNy2b9/h+/+vXr3qzwCgFVxoKECQOoFcIywwHGEhDYJw4cIFz8s7DJ9//nn70z/9X6Vpvh0CrPTkjRdbxgOqrIEwEgDSyTT/hZ68n0c9vt6dsSOnXrfjp9+2lmjYK/C2U0yf0tAY5XMBugvggdVOo2sbRnfaQ3uesvXDO2XneMwPMVD5EMfRu1kIoGN0euIzrZb6niKysl3RBFiZs5bimrZopyfet5eO/gc7P/W+dYtylCR9GTkh1q2od2K/eTOZeocIIuWkEkKYMAxN7ouAvE2jpZ4P45hQ6akX5zvSDrVBK7fW2N7tB+2xrzxtW9bcq0bw+bp4lQtLo858ocWyAT5FvRGPWPGtQ4wW6tedRqXBRs/PL9jHH5/yZwN5vxCPjaO6EQhMQAoIQhro1TB+//799uijj9pDDz1kmzdvciGhfjpD6iRiMtKXWvKKGic0GsCDJ9GlWJxtSPVP20fn3rFfvvdTu7Z43roDMnj5ugZc0qpqA1qD9xbdnRCos4immWbOHtn7vH3jwT+yNbndUj7y4YRSDuKxOOiOPCKBBk3qgddoKgRQTmWmyXfcpDbgVSgE+nLO2jLsvNZ2tnfFfvH+39hbH/3UMkN1/9I3Y72OnI+Whm/Y6XitbQgAIgSCoMDHoCRjarBKVG8DBx7ZVhbvKBU+7VavaKQ0YIf2P2mH9z9ra0qbVVYiBP48P8ylRISB3qszBV5kRYG8Vt7RFoMJ7OdnjE5PbbVb/vwCzwmeP3/ePXyEgZ4M4wcqg7Z502aNNHb5fgBWBREkBIOXV1M+PgJAHXw8EyA/ePHksaPFTQEHBIDRTiezaBcnP7aX3/mxnZs4YV2ZgVpGQ+KcyijI1Ck1y8589Dq0ZwQgylsW67xLK4Ky0FqR9YwNdMfsuQf/wB7e+03RbI0NZUdYluGustCxqQmuxNA1bqClotP7bHCjy6SmmKSG+4RQYqOc0GpMMzNv753mK6g/tmvVs5YdalhusK1hj+xoFydkMAryKlJNoIp9+AMCHKnYa1GAgEqvIHJKnZb8vYYDmVF79uFv2WHZtlJ3SA2qyMVR2bzXB81FGRJUCJC+0cxVRcoBT0CgwYHNUlwKpI1AW31dJPXOVE4s67r4+p+rbL+nNO4Eg7PKTqIhtnc4VdHU0LYtrWh53NtZu1G/YG8c+4V9eOZd6+SkvXINOYJMjlGPYyBBgR7SZOqEObWJx8y9EznB0KuqTyqwJoFkv0WxnFfbGQK3/B0IzWtFO7jtG/adr/6hjZQ3KjXvPmA0J7pShDc12hJk4AfacE09ESOOwCQ1eFmiNA0E4i1bezbfZzs37LOB7Ji/ddQl2LX8ErnJB4PRBak+iNgQjDTEMnMwCutY681bYUQ9T/by9aM/t3dO/9IamRnRXOpbXrXsBo8tKqeGVQ0meFRLTlqCh1pZffxMQMBY9ILBaSAO4SMg6ElIcEzBrx3xwD6ogdLGkWWUE/sg3C9J7jNpKbSEp3ygXF3tmbG57nV79fiL9s7JX1mzUJUvIM0gDZB+BzrmUqCD8t0MxCcnvG6G7yuwaspcSVujHLQUOCzO1224tM52bThgg/lx4SOakFP8RHiZwsCSOne8QKQ1BNwjvLMTYhzRB24THEQkN3eSjvGh9bZryx4Nj8YMLcnYvUcPpUzZNvyCntRLuvFkSdopBgwieMOJ9R4n6ZdNyOI81efUsEVbrE/a2x+8ZsfOvqdB46yKr/sb1GpN3Zcdy1ewayJ6XT0Ds9aTE5R8GCrT1jlvSG9LOORvoEHi7eNUp6NfK54p8C7zHji/EksZ0Pg+c4o3GMJinE4FytKR96bwWkoffMH4KvsK1IaSSFlmkLsghVWz2foNe/ntF+3jTz6y4oCEEo21RFUBtAjiq2AFGgIhk3hpHBb1nG66ZCcSnY1FKd4JXVJPzzbK1lks2pZ199i9Ow/YgO8kKvgwHhr75I8koL/FLRj1ubBCCG4GvHOmc9vyiHfw/eFNu5zIqBy+/8MIZKkh6g5+VKQ3CqBhQdB+wx1YImZ3kMjTie1XhbKsVqVnC60pe+29l+yNE6/YTGdCTlTN36ucKcAkOUIqincKMwvp8nSrAErLg+KoHS3kR8cBpUiZElwJo7+oOmWE4yvfQvaaGc/+q+x138tSslJRwiK1XO/OxzqATOf12Yv24pv/YB+eOuJ+AW97iVlBBaoE6B2Uwy+4wjD/R09iAuTP6Mj+QYZQuZK0kEwNWPHm8gJfgquXbSy/yfZvPWgbhrfoXlG5Qkx9c47SMkRk9JBq4BAE8Ohj0ofcn//w+z/kJJACOf3pAlz9PUJqAGq7VGTip6mGXpV3LMa4d6dCfSgEpb2A5EjmJEREPyyd9XxTRbmcs0q5ZI1azZ01nLmF6rxNTk3YvDSEP39QGhD66mctXhEfS8ioxPSNqStrWBb0E0HEEI7xnn9m7xjqIrRoroQvfebr6HTQbaKhHc3iNiCHU71CERJ4efrYe/YFnLn6kb30lpzAKx8rTnjKNDBPEItkKekT+qZ8cLpRlv5dPeO8SRCENHSnzWzPY3MtE0N8Fo8PXWT4xsGWg/b4/udsvCQhkEZkTxjsT3mIg+taV9gt8YfQP1GI39z3JQRhp9Nb8QeAOsXEHLRZeahkc9VZu3rtqmfISJX2+JyrV5K2bDkok1OYBkaZ8Utlknfl6WBfpG2oAgEoV6TWJcbztQWbnpmyG7MTPiJhCblSkPeue2xP44VYLKCku6K94BUhbRRcTDSUiJoeIVCof3BDkLyfk1EhsjpQhKKopqd6e92aqCZhEk6N7KxVbdqOnn3Hfvqrv7VrsxcsNyDBKmgEUkTDSAjcXFIIhaXUDYlyR1QdyePwZ8RIBNEFU/G8Y5oHdtiphCnINKUlFvI2WthgTz3wTdu7+aCGgxXlxRWEFoE3VYUA0E7anwiB/+CPhU+WxuT+/Ac//GFkIuivLylChHLoaer1fPbGX8akuOn5aVtcYPpTDBRBvDGkV7awraAQFS0ROcoM5EJFMdamknpNIw55wZWhQTEYAsv2VYq22Fy0G9PXbXp2yjLFnmuFgvJo8IemNH/XpZjqEx99U7TE6KBISgCAa+onANHzfWLKHUqYsZQ8ZT49st3V+L4XXzTJFdo+aro094n95M3/ZL86+rJ0dUMBnVmVWTNprUWrt6tqF4Wk9TmF/Q/wEY4zSTgkQuB0U3rXBNIi6OGivHC+GGf1vJU7o3b/rsfskfuesYEcL77CF1B+qlEJHvyHOlM6BH/ibqLtEiw8tHF7xQhnTqJKOPptTpW+yVZpIcNHnGs2Y2999Kq9fuQlW8xcs25lXo4VH2GKLFTtUuaNUmaI64QOpBghwzDmFcJ9zfijbwhOXWN4BC6vHo/jl+3Iymk00mtI0psF27HhHvvag1+3PZv2qhwUZCmGkc5EFe+No85oJMeU4AGB3XKIHhG9w/N4XADFeE9mTQPzoaM4YbO1G3b0k/fsbXn/E42r/nlctovjvDY1dKYHxzceID6lBS4pPjE8FqOdbmqomJ/psgqK44smkI+SZUhZs2JJ2pKt5O2KdWdLtia/y373a/+j7dv6iJSIhtHyTJ26SdNcAKAtwoUH65ooOiY88Ukj1U+7SepddekLqdF0ekMQMmLA3Ve81DCeGeADT1Pz1+xnr/1nO3XlXcuMaAwsZPNyYNg4giMJMwvFihy/sj+/4EMzLxwhCAcydinBPBATBon0Ry8gsbCgcnn1CENBRMq3ihqmDmqkstsO7X/MdqzbbxVbI7KpHmy18C7wDmWd8vo7lsWLGlpRAUU6HXQOjTi6W+MD/eSmAs0XFiIdc3oSfP2qGyiuZlO1y3bi3Pt28vRxuz5z2Ye1vRLPV6SEpvci5GFGOTrQDqdpIpTebqW5pRCgCShT93ISPp4ngBcLfPRqq8zAd+3R3d+wkcxmtVsdRBoCB51tAFRK29xCersC//BJdB8Bu7UQOFkUQaZICrKhzl2exFhspxqZgxgatvUW/HOwP3/772yqfdEypYaGclXpZ91tVa1Q4uPPvAJW1bIwJEZHlakQMNUswfMdS3wtnF6Ek0bjg5juuatevHJmDyu5Af+AREdDMz4mMZgbse3r7rP79xy23Vv22VBpVOXnpLKFM9olU5aaVN2qyUENYdaYEI2HcBIU4YLjxdoGwtdDfesmYq8+aLXunF2cPmunLxy3C1dPyTxd8m8L5NRDMyUJijMSfFWxjgB080pS8J6vILxCCOImows6BD2UL61GTxXDGa1IE/D1NL7PjD9g9ZxtG91nz93/e7Zv3SPWqjMaqNhweVQ0FK9UNQHBRp47bWmtHqYLPsI/6uScOiQEjksiBJ1ECJxKfgRCarnyO3jiFJ7riCw8O9eSjC3Y6yd+bq988FMRaloUbbimwGFSPb6ztqPGZ/0VNWqk9wLYTcP5XBtCgICUQCPRAkmvQiAQGDxcsGN6uittoJ7iBGkrXtoh0yxboTNkg6UR27hxq33lwEHbvXmvtMWIcuM7IAIxusd7dgL7LwbERUaxCGS0HlaiAardqs235+zspdP28acf2o25K24C2nxQQr0Tr5+xuzPLNYWTeSXj0wtnODVAU2rWdSoECACCA23UNhcU3aftaAm+O4HjyGcC+Hxgxdba/TsP20P3PmmbK/HFdL4sWczyrWQRXeVg3UV4d6AZWTB1HA4wnKTsRAjARFEhBLw8GHApJgCBeJBL5SSBQttd7KJsnpg1UbtkP3v7x3b01JuWLUtyKxrzF9gbUBM+YoCQZ40BFbQkBDQcIVCJvaKqZO4f6VfdIooLgqtUETjR2+xVJH+OoEa4L0zvajFsKknly4do9axZB/+CrR3faLt27LFtW3fa2MhaGyyMWEVmxNcjYIbqo378k3av7q+IvzEzadc1LL1245pdxxldmLKaejzfIe7l5RSr50Nr1DQ0YCXUh54Q2iEY6+BMvkVQUqeo7jtNXfAVpwvf1u/pECfiFSRkLKEXZVaz0oKtBTnMXb4XccCevv852712r1qET1BUTgSdTTg5X4JnTYcVTgQKWjqWjgIaKYSNK6dDtyWly3VfCJAaHZxYgZiLCQ1QFHsRO/KUexoV8IzihclP7R/f+M92/uqHVhiR49ibFB9EIJ6RUx7snDPbpTwI70JEIx0Z7KCgX78QduJIPXeZUZRqZ9+CcrqUQ0AlY1eNb4dTnnZT9emsiFsuldpqKE6VszkGDcCLI0sFvhImorCHkraQg/2AsgG8qLqhoSomIMvW8ZKcTiaD8uELtbr0yqYYwrcMpMnEeIZtDFEdGQcnWgJOUMfV6dePWw7RJaA1cpQuwsG2EALRqoB5k3A3Or6BNIvvU+uJ5WXbPLbVnjnwrN2/9SGVwpvYWVMdsHJ+SG3kBaIx7I7t70FPAA64veDodFBYKQRIDUgQgQBEr2G/SWpvwpFiyNTwT8e3ZSI+uXzUfvnu39qFG8csOygtUBLhePpYGXjyJoQAdQVJlN89bZitgwsHAKki9MkGsgr+uLobc+EkZy8+Kkk6lcPDHnIK2ZDC94jdPtIM4Y7egNH+mLay8wwjH+VCuGgfmooHJSkJ00P74AhMYB4iFUYcXmJ99VBEdeycgEGpJXBCRjOSO/xGa1YCObt4cOAh5JYWkMCN2oSv2t7CUQFPnxZW+9hz0VK6VtZ2DO+yrx14xvZve1Dabq3ahQ8UT5XjS9Fm5zelOX8Dk0APPOEHtz4jBGo4iYQOvYudPhTmAsUNHX1DqJBmVbyJqsks2rHTv7Rfffhjm+9csWpv2p8yyhRlDnB2PlcI1FjKFfgBXPvnSqmkCABzDf7omXof2DGNDSMZQ7MXopBj55I0itK3pQoZ4RBHeWiPlFlxVA/B1xBD8RnY8+COr8er1UrobxfnyI9O2Ujij3l5DNO4EUc5/tUxB9LSPtLdCmgrBIyywUSY60TmTcznaeGctEw8MQw+TIqpbEyBRlod8YF9DODJk9klCYRNZm1jfpt99ZHnbf+uQ9IC4zIFlFe2Uh6BiOocvG4h7mVzzWngm+lK30QkCRCCJJHfpgc5xq5W3EFM9gNQCIvQHfyE7LzGDBP2/ulf2Mvv/Gc5VlNWGIbA0hQqo6veSGOjZn6jLp8sceQEOsTd5Kiy/QxN4Jc6Kg3b1ThnbgE+d/jcjHo3jUDdYzqwh6h9ItEmznzV48x1houUCJeYyFO9DC9jw4kspq4RBM8rlviijC4dH192liBgVhSLQBIA0sZkUxI8NgUaF6m54RgIr447xdhzmTZpzpycbpxVX08AsgVdifkiE5+75e0j2HhMMl+ZHegOWGYub4P5tfb4oWft4b1P23Bhk4jCGoIcabSgiqH9LgDLeAv+caawNDpYHgC/vSwAJE2zCxAQGpOrSSvMWT0jQTjzmv38LWmE9g0bXFO2uhpX463bYk5eUs0OZew1Gz9gIs/sJ2xeGRLhiF9qDMKLlck1v1hV8sbVCqCI5DQgKXcFwAyO/CThM/mAyBvEjECvbiFALjESAQlITm3L65g+u8lHwLjrG1UQAjf+yq0jSr+bGdRRQ2QJbF4dIivfw+RvsbqKDfbuqbzhOySC58gFhr7chKauyT3srrUHdj9pT+x/3jYP79RIilERBlF5MIGqIyftgAmUVfQi6NiIRe4HP4gFpIBo0FJIIW28oH8LadefzukZ7sCpSh6LLpRLNjU9Y9Mzs77aV9Q1PY/dOvlCwUqViq+Ns2uYzZJRHhBkDlgWH5zyyzSkIpFgob+V9wkr4VYp6L/6hWEeQt3HJBaBa1JF+YrQDyF6NAzhq/BpinhUz29JJcvllXceGhRnGvOFt692cy164AYyV8cDrK6FFeOPBeqevzMK4fE2AhQc7Y2IrvwuOegMV8s50bJt169dt/nqvI2MDNlwZVDaUL6ZaMzCHOayI18C85hjM4gKQbM6/+RU0ao7B4gGNkLapznZNJGpqyl1m+vekEZ4y15/72Wbrk1YaVgyqSHWQnPePe1imaGjRgiS9FgFpFUKKnOpp8e1g5sq0ExCoiX66e4aQpCiHsKSllmCtF4YDx4RyOLLvu7cqQVK4h09CWmJvM4GM8Bn61iVZchH8DeS+OhE4pykz9PbxZmWRitoAdZWYi0HDEikkECUKTzcnyhasTPgi0v59qDdu+UBe+LBZ2znur1MJ2m0BFULVuEF46FKws9Rcaxt3L0QCGAeHrerFA2t+JQezhrj0sXerB0/974E4Rd2deacZcotK41kZB4WZOMWLa8hmDNASNHjwnHEmUNKIaziVggB8wvRW+JIreQLJtwd3CwEwM2CAHmoX8e+EBBHzhTfND3lpWmFH34HcSqSwB38Dxjs2+G5pzQAzm6W/Qtst1PzcGlcK7kQRLletgsCeTgnTnk1RC7J1FZyg9aYU4eUedixYb89+/B3bPfmB0RZDRub+Ac5qxRVvoSMMmMntopZjRAkLmWoLiGLimvipAk5ZtQatmAnLxyxX7z5E7s8fdpyww0rjqgn5GtWbfCJW5GROYCU+T6nwMwZ5yozUcfBdAVGFT7LFoKnWhRP+uVMuwOAAMnpEtyqLNpJ4oT4Og/zwUzo0jwHGMW0N7gKQ4oiKEGQigtoRdvEdGnFgnozaxwNqeoWs6EaUvfYfCrvHyFzlU19ar+/ksbpIOYrP+9FQpiK6oDVRTa2mJgsP6OuvPVBGylus6cOfsce2fd16Yph/86SHASNIgoyVSoVBEXj5KvpdwcwwmtWo3CuIUxJDh+eabctT10NGh0Zs3Ub1lqjWbfrE1dssSZkpS+Z1vRe4owk0APpMhCKMgmqw4lJiNFEBKdMkoe8fnFX8Nmcn1cW8Qp+Gy0WDqDPZirGcUwEgE7g/gItFPdhOj3c3wrHRE5DrKwrXozPqdtTBottMcMatppd2uR3v0BlhyAsBUxObCeTc9pmwU5IMMOYbbu5xfRUNaS8cv2G4zI+vsY/IlaSAPjmGoRKv9DwroVAODgP0OQs2PBqFngTrIQCqqYtlaOevmZ4zMbHRhUVD3nWqizNSvUVNFpQ3mA4CHGEwUgUEh+9Ps5dyhSoGOAkFZ5+5B3DHef0DDA+csIQ/3AomoA1DxeABE8dnC5dtZXhYD1r9dm25Zsl2zS21baMb7GMBGJ+elG2miFgUXlFS+hKeWp3Rh4mDAtzwLlaDJ3pwaJts9FSkPPHTGdZ1xKIapONL/IPSmWfDWXLfVNxa8fHrSIToP7nyMUiktz51WgC1wCu58RsPGHiGH6IX4wWmLDJ4RCp0uHKiG3bttNKA4M2MTEr9SVJZJkXY5mITlAuGp8+IMEm1lhhJB5iixTKw7gZIUiZcbdwx7nTDP0jeIUZiI0gxOkHU4a56IjI7aIVOhXrVXVdLdnuTXvtW49+15554Bs2UBrWSIrvOkgnSlvg5/heBLeICH+YgFQIXABIAwK6zbMTA0PyBTTyanakBQZUjwSgLmHwJ6TwPUS3ievXbG5u2sZGRmyU19nQ+UQ/ptXv2icgEw2GKRTIUy+igXdWv+mgCHbz5pmBZ9cNoWHnJ8/bK0detlOXjlq7OO9bsXg0vdurSpIXVIhGEBUxWURoqyE8GofEduU7dKROmcVkCJdTvb5xh/Ysg75HLQFN/ZZbgm6tzErEUnqmiQn4bnjTAMMtyveHX9TgfAHWSH3L1rIc7f6RiMuObGvmrJwdtGyzaHNXF220uMZ+66lv2eGvPGkFmUrmXHnf4JlLp+0nr//Yrs5etMF1eatm5nz3cs9fYqEOgGmQPWdHcZEpYZXda7vb6KEjnDu8CEyCgzDyrWZ/yaY6WafWtaHsmA10R23hcst2rz9gzzzyvN279Ss2UBxVulULAb0SIXBe+zF2z3JXIengjI+bGhK26DXSGJBzpjVt75x61d458UubnL8kp7Jqw6M5Gxhh4nTRFmpTkuS679hR11A9rDYqSLUSILTEQr/0Eqqkzs9CKhC3BPBNTuPi1mWocvk8cQ8hQDB4uFYdThi0rNZge5wctGKsZrY1JCuK+UUbsLmJqnUXc3b4gSftm4++YFvGtkuiwJ7H5EvKLTuujnFFI6ifvP4jO6qhdXFcvsJwy59j8CeYIYFo0G6q7HrXl44Hy0MqJ56UYq6CdZquNEjH/RKEpy3BadiINIVVJURzGhm01tiIbbLfeuJf2UP7nlBzeQIboVqFELhqFhmhne8UEkl8yEMQ8OQxkx+Zopgme8c0s9rhGqQjgYDZV6tnXBiOffSOzS1elV2TFhhUogLbqxoqX0RSetjdlSfeZWmaIE1QoCe6uowm3MzwX6sFAN2OHJykaTmm52qbmyvVEE1y+UYg2BTLWn+xJEdYmgr/h2cxSnle8VO0hemm2/89W++z3/rqd2z/1vv9QR6Tw8y2cT4FxLqKby3P8fTSgl2e+8Re+eAn9tH5t62RmbJuUbae5Wu0gXDgmUt/7E71tJuyBWIdbe4pni+fMgUes5Jt4QTtm8KlY6OlEevMKP/CoH3zsd+3Jx98wcqZcfFM3iRadVVDRCchYUkAOAYN+RFhIJ4IyQsnsOVtXaNZ5QdZPct27Xho4+rseTt26i376NS7Nle9bhVphHyZfiZhEIO67iWz4sdIhKDy2TmDJkh4D0HSANy+OeAk8I0QQFYCSpdfnxlls62OlEs9biaED3sa6gttm7gyY/luye7beb89c/h5O7DzAX/vE3sfSlaRYzYkx0wC0IAwKjWfk/2OXp8t1myhc81+KUF458NXrZldsNyAhpLFri3WF6Gslf1jYky9q91E0FbRhfWZDnhJCLIyo7mcgojfqUsQZJYK9QF7dO/T9vwj/8rWFHfInEi6JIRu3lYjBEuAECTFONESSJnhg10JgkIK9G4UIY+78/xzV8xuSDNcm71kx06+ax989LYtNGesNCQ1yIMcSDY2RyqYYmIiRr3BSXNrWC4Qt4Q+rpyA/8oQ+OIThDnwBTRuKQ51zo4fPobPZhY8fJi/d+dX7NEHn7Q9W/bZaGGt0K0ote//UV2o9Nj/wNtZczjGAnxc/APmVdpifE+d4vin79nL7//MJuYuW35AinEga7VOVcIwT/X+FTXfbs9QQm0Mh5nCuKSrKI0Eg6eWZy7P20N7DtvvPfM/2Hhhqyor696QD1vVotUIQUIoPwKqXVh49RBe0U4wnaoTe5RHJHFdOVb+fiK1wwO93cWCp3rU2NacvXPsDXv/ozclIgvyJ9QT8hpasmElF4+9SeR1zsoaRUevv7n3r0YIUqbDLAiGUMhPVe9XJCp5QaI707ZBOVj7731AzH/CdqzfY5XMiJhe8aGhC4CEJb43Ke+9KMHxB3nQnCpGPRoolnO22JjzDlEqi+E2b6evfmSvvPuSnbl80mdbM5WOLbRnXDPwnCIakfkFcI1dTipTR7Qv+zC7GpK253N2YMch+9Zjv2s7xu4TNsPSAvIFEi2g1KsTghi6UAyXFEgIiSQOAjttBb6My0KJVDhjXwfcWbq2epojjrRoSImWoGfwMuzFzpSduX7Mjn/ylp278qHN1K4o+aJlCxo1qDdoMKwyVpqB9Jzl4eUC8RnQrcjBCekIaJbIE2pfjJK9b3vg+UM5XOJbMVO27eP32KP7nrQHdz5s6wY2KpfaIjtbsniqWuKjtKISu3zk4GbVNvQXIwm0WFFCzLinWWfLHr275C/4qnVqPupgxHT62gmZh5/Z6cvH/GGXwoj8kGE2m/B2VyEnGgoz9Yd4ZlEY++tr2tWMNWbztmPt/fadJ/7I9m9+xJnPru0KO7Jb4CANU1yVOVguBPzSnUGBc52KuhBQAuuqKc8TzIz/O2qwiCAPR+ckEiNzOCiKFv096BZ+QKPHY141EUM9X6ai2rthl2c/sY/PHLUz50/YxOyEtIY0g4SH+Qi2fBH8O04+LUqPUcF9Bqe/MJ+6lY5jAiSLq7hH72ViqyUVjiofHhyzjRu32O7d99g9W++1LZUdYjdPBDPdrbIQgMyAHNayCK78DfwV9dYiNptZQOEDDUQqqNRpitk68sKNqE+NV/q8tAULbQ0NFNmRfGn6jEzDT+zU5SNmlZq0IsNHdahC3hpoVHwj+QEl5mrUGSVD1pzL2vrhe+wbj/yOHdz5NSuzNb9X8Q27khnXzoxuVqkJgGA5v0G+CDcXSCxpxVqd0+UjR9wRxxPh4T/Ny7E/DSusI6A648jKxHTjip2fPmUXLp+18xc/9ecXa43FZD9gW7IFQeUw6c83kVCwWys5eAT1Isbc9FZeU89LoJh/KOQqVpQhHq6M2drxDbZ5w3bbsXW3bV67zYaKY2Ic8/oURU9mYSaEyRfClN8dSfWCELCEHt42nUnS/E9enWpVUJtcgOCI8HFaeHbdkT7M1FVRw2bqV+1Xx/7R3jr6spvGgXVFW8zP23xvXiZGZkc9J9PMWqU3ZHKlrNAcshce/x178oFvCEM5o9JMvOvQX3wJGkkdXPwTOYb//NBlHJypimCLIhbOJbuYmrbYnrOp+QmbkpaYmJ6wmYUZa7Gu3mn6m8x4NzIzachiXo4V27AqpQEbHByxkaExGx9Zb2tG19vo4Fqr5IflzpVFwKUdvcFoMVb5mRVNH4i9UwiBkECjGVxgVDaPzsOZlCOqyh9n6y1aoYTrPGMfnHnL3nrvl3Z94ZJ1x5tWLcuZ1FB8KD9qhXbFFq41rNgatOcOf9ueOvgNG86vVTFqg7QUb6Z1gUuK/xcvBCAdOkK/9Co1SDTzWGYgEAhcTcirPq5YUq+gr4JsqUKfKJ46plJR8ZwzU0ks92KrHf1ef8587qe57wxCCNBOYKRS0CCuEfymgzNJQ752pibsZRo0kqr2ZuzEhaP25gev2IXFTyw7rrbJJNbn2lbuDVqmWrDHDjxpzx/+jo3k1gpDaQCEWEIQ2uYmfP8lC4E3Bs7rn6G6Ojid24eP8recywgBIf6imcFoFDZ3pGoVlhuwOBOTYbb3GtlZaQw3HyKnVyhzhibwc4ZpHO8QqMfXQnSMJXMEgfO4SYmcejs05q+25q3WnbeCHMacBOP0tY/sZ+/9Jzt742MbHWM0UrbrF6fs0L5H7YVnftvG8+t8lJKVAKAFWPJGaP//JwQKNAlZ8CgFn7vxczVObWbjKNc4iD5aIKGTPHxTHKTIiXgE8f3a/Rb9JWWvAJxNPyA+SNytEv168BpVuNeii35IbvpRP2CMuuc1AE0JLGaPb0lrIG2XF0/bP771t3by4xPWrHVsz/a99p2vf892rtsjoWC3MY+qlVUuvgYjt5txpXaFf7FCIPSxnxAOnvgEIsSDsXjfSVsZIiIACd8cfMu5EpDE412FREjjyNduy9iIAQgLD7r4Y3FITZIoSHi3miAEgOrJ/XlCwH2Elz+G1rzAinUYf/IpW7fp1hX7+5f+ziauTNp3n/ue7dmx1wUAzcAwJDUzqJSVQkDJYKCYf7lCoAaIaoS41BGHT/E+YUSc7IL3dK69zUtN5a2s8qEVRBhFp7eS5FL3+kGgfAEr7nlC2XF/5gH7g4lgZ9RSgtuGzwgBgeLjpt/xt8wirGoHcxRoDl7Vw2olr85v9uZ0n6+zMsbQUDNT0uApa81G2x9dKxcHknZFDempHzn1esz+P7KBHRuqNy/7AAAAAElFTkSuQmCC;" parent="0IvVDsr4xx46r5oWkWUR-10" vertex="1">
          <mxGeometry x="12.5" y="2.069999999999993" width="34.81" height="32.93" as="geometry" />
        </mxCell>
        <mxCell id="0IvVDsr4xx46r5oWkWUR-13" value="" style="edgeStyle=none;rounded=0;orthogonalLoop=1;jettySize=auto;html=1;exitX=1;exitY=0.5;exitDx=0;exitDy=0;" parent="bZx_TzwmVWrBECJr0aBG-1" source="0IvVDsr4xx46r5oWkWUR-11" target="0IvVDsr4xx46r5oWkWUR-15" edge="1">
          <mxGeometry relative="1" as="geometry">
            <mxPoint x="260" y="266.47365504915103" as="targetPoint" />
          </mxGeometry>
        </mxCell>
        <mxCell id="0IvVDsr4xx46r5oWkWUR-15" value="S_ASSET" style="sketch=0;outlineConnect=0;fontColor=#232F3E;gradientColor=none;fillColor=#3F8624;strokeColor=none;dashed=0;verticalLabelPosition=bottom;verticalAlign=top;align=center;html=1;fontSize=12;fontStyle=0;aspect=fixed;pointerEvents=1;shape=mxgraph.aws4.topic_2;" parent="bZx_TzwmVWrBECJr0aBG-1" vertex="1">
          <mxGeometry x="317" y="234" width="22.61" height="33.28" as="geometry" />
        </mxCell>
        <mxCell id="0IvVDsr4xx46r5oWkWUR-17" value="S_ASSET_X" style="sketch=0;outlineConnect=0;fontColor=#232F3E;gradientColor=none;fillColor=#3F8624;strokeColor=none;dashed=0;verticalLabelPosition=bottom;verticalAlign=top;align=center;html=1;fontSize=12;fontStyle=0;aspect=fixed;pointerEvents=1;shape=mxgraph.aws4.topic_2;" parent="bZx_TzwmVWrBECJr0aBG-1" vertex="1">
          <mxGeometry x="317" y="308.94" width="22.61" height="33.28" as="geometry" />
        </mxCell>
        <mxCell id="0IvVDsr4xx46r5oWkWUR-20" style="edgeStyle=none;rounded=0;orthogonalLoop=1;jettySize=auto;html=1;" parent="bZx_TzwmVWrBECJr0aBG-1" source="0IvVDsr4xx46r5oWkWUR-11" target="0IvVDsr4xx46r5oWkWUR-17" edge="1">
          <mxGeometry relative="1" as="geometry" />
        </mxCell>
        <mxCell id="TfpT95lNpS6fOPpx6Es1-26" style="edgeStyle=none;rounded=0;orthogonalLoop=1;jettySize=auto;html=1;" parent="bZx_TzwmVWrBECJr0aBG-1" source="0IvVDsr4xx46r5oWkWUR-22" target="0IvVDsr4xx46r5oWkWUR-8" edge="1">
          <mxGeometry relative="1" as="geometry" />
        </mxCell>
        <mxCell id="TfpT95lNpS6fOPpx6Es1-37" style="edgeStyle=none;rounded=0;orthogonalLoop=1;jettySize=auto;html=1;entryX=0.02;entryY=0.5;entryDx=0;entryDy=0;entryPerimeter=0;" parent="bZx_TzwmVWrBECJr0aBG-1" source="0IvVDsr4xx46r5oWkWUR-22" target="TfpT95lNpS6fOPpx6Es1-21" edge="1">
          <mxGeometry relative="1" as="geometry" />
        </mxCell>
        <mxCell id="0IvVDsr4xx46r5oWkWUR-22" value="Stream to ODS" style="aspect=fixed;html=1;points=[];align=center;image;fontSize=12;image=img/lib/azure2/general/Log_Streaming.svg;" parent="bZx_TzwmVWrBECJr0aBG-1" vertex="1">
          <mxGeometry x="716" y="46" width="40" height="47.86" as="geometry" />
        </mxCell>
        <mxCell id="TfpT95lNpS6fOPpx6Es1-27" style="edgeStyle=none;rounded=0;orthogonalLoop=1;jettySize=auto;html=1;entryX=1.194;entryY=0.47;entryDx=0;entryDy=0;entryPerimeter=0;" parent="bZx_TzwmVWrBECJr0aBG-1" source="0IvVDsr4xx46r5oWkWUR-23" target="0IvVDsr4xx46r5oWkWUR-8" edge="1">
          <mxGeometry relative="1" as="geometry" />
        </mxCell>
        <mxCell id="TfpT95lNpS6fOPpx6Es1-36" style="edgeStyle=none;rounded=0;orthogonalLoop=1;jettySize=auto;html=1;entryX=0;entryY=0.5;entryDx=0;entryDy=0;entryPerimeter=0;" parent="bZx_TzwmVWrBECJr0aBG-1" source="0IvVDsr4xx46r5oWkWUR-23" target="TfpT95lNpS6fOPpx6Es1-23" edge="1">
          <mxGeometry relative="1" as="geometry" />
        </mxCell>
        <mxCell id="0IvVDsr4xx46r5oWkWUR-23" value="Stream to PS" style="aspect=fixed;html=1;points=[];align=center;image;fontSize=12;image=img/lib/azure2/general/Log_Streaming.svg;" parent="bZx_TzwmVWrBECJr0aBG-1" vertex="1">
          <mxGeometry x="716" y="121.07999999999998" width="40" height="47.86" as="geometry" />
        </mxCell>
        <mxCell id="TfpT95lNpS6fOPpx6Es1-28" style="edgeStyle=none;rounded=0;orthogonalLoop=1;jettySize=auto;html=1;" parent="bZx_TzwmVWrBECJr0aBG-1" source="0IvVDsr4xx46r5oWkWUR-24" target="0IvVDsr4xx46r5oWkWUR-8" edge="1">
          <mxGeometry relative="1" as="geometry" />
        </mxCell>
        <mxCell id="TfpT95lNpS6fOPpx6Es1-35" style="edgeStyle=none;rounded=0;orthogonalLoop=1;jettySize=auto;html=1;entryX=0;entryY=0.5;entryDx=0;entryDy=0;entryPerimeter=0;" parent="bZx_TzwmVWrBECJr0aBG-1" source="0IvVDsr4xx46r5oWkWUR-24" target="TfpT95lNpS6fOPpx6Es1-22" edge="1">
          <mxGeometry relative="1" as="geometry" />
        </mxCell>
        <mxCell id="0IvVDsr4xx46r5oWkWUR-24" value="Stream to RDW" style="aspect=fixed;html=1;points=[];align=center;image;fontSize=12;image=img/lib/azure2/general/Log_Streaming.svg;" parent="bZx_TzwmVWrBECJr0aBG-1" vertex="1">
          <mxGeometry x="716" y="195.99999999999994" width="40" height="47.86" as="geometry" />
        </mxCell>
        <mxCell id="TfpT95lNpS6fOPpx6Es1-29" style="edgeStyle=none;rounded=0;orthogonalLoop=1;jettySize=auto;html=1;" parent="bZx_TzwmVWrBECJr0aBG-1" source="0IvVDsr4xx46r5oWkWUR-28" target="0IvVDsr4xx46r5oWkWUR-9" edge="1">
          <mxGeometry relative="1" as="geometry" />
        </mxCell>
        <mxCell id="TfpT95lNpS6fOPpx6Es1-34" style="edgeStyle=none;rounded=0;orthogonalLoop=1;jettySize=auto;html=1;entryX=0.005;entryY=0.63;entryDx=0;entryDy=0;entryPerimeter=0;" parent="bZx_TzwmVWrBECJr0aBG-1" source="0IvVDsr4xx46r5oWkWUR-28" target="TfpT95lNpS6fOPpx6Es1-21" edge="1">
          <mxGeometry relative="1" as="geometry" />
        </mxCell>
        <mxCell id="0IvVDsr4xx46r5oWkWUR-28" value="Stream to ODS" style="aspect=fixed;html=1;points=[];align=center;image;fontSize=12;image=img/lib/azure2/general/Log_Streaming.svg;" parent="bZx_TzwmVWrBECJr0aBG-1" vertex="1">
          <mxGeometry x="716" y="302" width="40" height="47.86" as="geometry" />
        </mxCell>
        <mxCell id="TfpT95lNpS6fOPpx6Es1-30" style="edgeStyle=none;rounded=0;orthogonalLoop=1;jettySize=auto;html=1;" parent="bZx_TzwmVWrBECJr0aBG-1" source="0IvVDsr4xx46r5oWkWUR-29" target="0IvVDsr4xx46r5oWkWUR-9" edge="1">
          <mxGeometry relative="1" as="geometry" />
        </mxCell>
        <mxCell id="TfpT95lNpS6fOPpx6Es1-33" style="edgeStyle=none;rounded=0;orthogonalLoop=1;jettySize=auto;html=1;entryX=0;entryY=0;entryDx=0;entryDy=39;entryPerimeter=0;" parent="bZx_TzwmVWrBECJr0aBG-1" source="0IvVDsr4xx46r5oWkWUR-29" target="TfpT95lNpS6fOPpx6Es1-23" edge="1">
          <mxGeometry relative="1" as="geometry" />
        </mxCell>
        <mxCell id="0IvVDsr4xx46r5oWkWUR-29" value="Stream to PS" style="aspect=fixed;html=1;points=[];align=center;image;fontSize=12;image=img/lib/azure2/general/Log_Streaming.svg;" parent="bZx_TzwmVWrBECJr0aBG-1" vertex="1">
          <mxGeometry x="716" y="382" width="40" height="47.86" as="geometry" />
        </mxCell>
        <mxCell id="TfpT95lNpS6fOPpx6Es1-31" style="edgeStyle=none;rounded=0;orthogonalLoop=1;jettySize=auto;html=1;" parent="bZx_TzwmVWrBECJr0aBG-1" source="0IvVDsr4xx46r5oWkWUR-30" target="0IvVDsr4xx46r5oWkWUR-9" edge="1">
          <mxGeometry relative="1" as="geometry" />
        </mxCell>
        <mxCell id="TfpT95lNpS6fOPpx6Es1-32" style="edgeStyle=none;rounded=0;orthogonalLoop=1;jettySize=auto;html=1;entryX=0;entryY=0;entryDx=0;entryDy=39;entryPerimeter=0;" parent="bZx_TzwmVWrBECJr0aBG-1" source="0IvVDsr4xx46r5oWkWUR-30" target="TfpT95lNpS6fOPpx6Es1-22" edge="1">
          <mxGeometry relative="1" as="geometry" />
        </mxCell>
        <mxCell id="0IvVDsr4xx46r5oWkWUR-30" value="Stream to RDW" style="aspect=fixed;html=1;points=[];align=center;image;fontSize=12;image=img/lib/azure2/general/Log_Streaming.svg;" parent="bZx_TzwmVWrBECJr0aBG-1" vertex="1">
          <mxGeometry x="716" y="452" width="40" height="47.86" as="geometry" />
        </mxCell>
        <mxCell id="RiGDZOSpXWc21hBflC_N-4" value="" style="edgeStyle=none;rounded=0;orthogonalLoop=1;jettySize=auto;html=1;exitX=1;exitY=0.446;exitDx=0;exitDy=0;exitPerimeter=0;" parent="bZx_TzwmVWrBECJr0aBG-1" source="0IvVDsr4xx46r5oWkWUR-3" target="0IvVDsr4xx46r5oWkWUR-8" edge="1">
          <mxGeometry relative="1" as="geometry" />
        </mxCell>
        <mxCell id="TfpT95lNpS6fOPpx6Es1-10" style="edgeStyle=none;rounded=0;orthogonalLoop=1;jettySize=auto;html=1;entryX=1;entryY=0.5;entryDx=0;entryDy=0;entryPerimeter=0;dashed=1;" parent="bZx_TzwmVWrBECJr0aBG-1" edge="1">
          <mxGeometry relative="1" as="geometry">
            <mxPoint x="392" y="137" as="sourcePoint" />
            <mxPoint x="242.4000000000001" y="137" as="targetPoint" />
          </mxGeometry>
        </mxCell>
        <mxCell id="TfpT95lNpS6fOPpx6Es1-13" style="edgeStyle=none;rounded=0;orthogonalLoop=1;jettySize=auto;html=1;" parent="bZx_TzwmVWrBECJr0aBG-1" source="0IvVDsr4xx46r5oWkWUR-3" target="0IvVDsr4xx46r5oWkWUR-9" edge="1">
          <mxGeometry relative="1" as="geometry" />
        </mxCell>
        <mxCell id="RiGDZOSpXWc21hBflC_N-3" value="Enrich Stream" style="aspect=fixed;html=1;points=[];align=center;image;fontSize=12;image=img/lib/azure2/analytics/Stream_Analytics_Jobs.svg;fillColor=#E6FFCC;" parent="bZx_TzwmVWrBECJr0aBG-1" vertex="1">
          <mxGeometry x="392" y="116.99999999999997" width="68" height="57.99999999999999" as="geometry" />
        </mxCell>
        <mxCell id="TfpT95lNpS6fOPpx6Es1-3" value="DLQ" style="sketch=0;outlineConnect=0;fontColor=#232F3E;gradientColor=none;fillColor=#3F8624;strokeColor=none;dashed=0;verticalLabelPosition=bottom;verticalAlign=top;align=center;html=1;fontSize=12;fontStyle=0;aspect=fixed;pointerEvents=1;shape=mxgraph.aws4.topic_2;" parent="bZx_TzwmVWrBECJr0aBG-1" vertex="1">
          <mxGeometry x="594" y="459.2900000000001" width="22.61" height="33.28" as="geometry" />
        </mxCell>
        <mxCell id="TfpT95lNpS6fOPpx6Es1-7" style="edgeStyle=none;rounded=0;orthogonalLoop=1;jettySize=auto;html=1;exitX=0.5;exitY=1;exitDx=0;exitDy=0;exitPerimeter=0;" parent="bZx_TzwmVWrBECJr0aBG-1" edge="1">
          <mxGeometry relative="1" as="geometry">
            <mxPoint x="206.9000000000001" y="177" as="sourcePoint" />
            <mxPoint x="207" y="294" as="targetPoint" />
          </mxGeometry>
        </mxCell>
        <mxCell id="TfpT95lNpS6fOPpx6Es1-9" style="edgeStyle=none;rounded=0;orthogonalLoop=1;jettySize=auto;html=1;dashed=1;" parent="bZx_TzwmVWrBECJr0aBG-1" edge="1">
          <mxGeometry relative="1" as="geometry">
            <mxPoint x="242.4000000000001" y="158.11773185968286" as="sourcePoint" />
            <mxPoint x="392" y="158.83661701105234" as="targetPoint" />
          </mxGeometry>
        </mxCell>
        <mxCell id="TfpT95lNpS6fOPpx6Es1-18" style="edgeStyle=none;rounded=0;orthogonalLoop=1;jettySize=auto;html=1;" parent="bZx_TzwmVWrBECJr0aBG-1" edge="1">
          <mxGeometry relative="1" as="geometry">
            <mxPoint x="226.92220948559975" y="177" as="sourcePoint" />
            <mxPoint x="227" y="294" as="targetPoint" />
          </mxGeometry>
        </mxCell>
        <mxCell id="TfpT95lNpS6fOPpx6Es1-8" value="Siebel DB" style="shape=cylinder3;whiteSpace=wrap;html=1;boundedLbl=1;backgroundOutline=1;size=15;fillColor=#E6FFCC;" parent="bZx_TzwmVWrBECJr0aBG-1" vertex="1">
          <mxGeometry x="193.4" y="115" width="49" height="62" as="geometry" />
        </mxCell>
        <mxCell id="TfpT95lNpS6fOPpx6Es1-16" style="edgeStyle=none;rounded=0;orthogonalLoop=1;jettySize=auto;html=1;entryX=0;entryY=0;entryDx=0;entryDy=23;entryPerimeter=0;" parent="bZx_TzwmVWrBECJr0aBG-1" source="TfpT95lNpS6fOPpx6Es1-14" target="TfpT95lNpS6fOPpx6Es1-8" edge="1">
          <mxGeometry relative="1" as="geometry" />
        </mxCell>
        <mxCell id="TfpT95lNpS6fOPpx6Es1-14" value="Siebel" style="aspect=fixed;perimeter=ellipsePerimeter;html=1;align=center;shadow=0;dashed=0;fontColor=#4277BB;labelBackgroundColor=#ffffff;fontSize=12;spacingTop=3;image;image=img/lib/ibm/applications/app_server.svg;fillColor=#E6FFCC;" parent="bZx_TzwmVWrBECJr0aBG-1" vertex="1">
          <mxGeometry x="57.5" y="48.43" width="43" height="43" as="geometry" />
        </mxCell>
        <mxCell id="TfpT95lNpS6fOPpx6Es1-17" style="edgeStyle=none;rounded=0;orthogonalLoop=1;jettySize=auto;html=1;" parent="bZx_TzwmVWrBECJr0aBG-1" source="TfpT95lNpS6fOPpx6Es1-15" edge="1">
          <mxGeometry relative="1" as="geometry">
            <mxPoint x="192" y="157" as="targetPoint" />
          </mxGeometry>
        </mxCell>
        <mxCell id="TfpT95lNpS6fOPpx6Es1-15" value="Update &lt;br&gt;Operations" style="sketch=0;aspect=fixed;html=1;points=[];align=center;image;fontSize=12;image=img/lib/mscae/SchedulerJobCollection.svg;fillColor=#E6FFCC;" parent="bZx_TzwmVWrBECJr0aBG-1" vertex="1">
          <mxGeometry x="57.5" y="185" width="50" height="43" as="geometry" />
        </mxCell>
        <mxCell id="TfpT95lNpS6fOPpx6Es1-21" value="&lt;br&gt;&lt;br&gt;&lt;br&gt;&lt;br&gt;&lt;br&gt;ODS WS" style="sketch=0;html=1;dashed=0;whitespace=wrap;fillColor=#2875E2;strokeColor=#ffffff;points=[[0.005,0.63,0],[0.1,0.2,0],[0.9,0.2,0],[0.5,0,0],[0.995,0.63,0],[0.72,0.99,0],[0.5,1,0],[0.28,0.99,0]];shape=mxgraph.kubernetes.icon;prIcon=api" parent="bZx_TzwmVWrBECJr0aBG-1" vertex="1">
          <mxGeometry x="884" y="105" width="50" height="48" as="geometry" />
        </mxCell>
        <mxCell id="TfpT95lNpS6fOPpx6Es1-22" value="RDW" style="shape=cylinder3;whiteSpace=wrap;html=1;boundedLbl=1;backgroundOutline=1;size=15;fillColor=#E6FFCC;" parent="bZx_TzwmVWrBECJr0aBG-1" vertex="1">
          <mxGeometry x="884" y="360.57" width="49" height="62" as="geometry" />
        </mxCell>
        <mxCell id="TfpT95lNpS6fOPpx6Es1-23" value="PS" style="shape=cylinder3;whiteSpace=wrap;html=1;boundedLbl=1;backgroundOutline=1;size=15;fillColor=#E6FFCC;" parent="bZx_TzwmVWrBECJr0aBG-1" vertex="1">
          <mxGeometry x="882" y="240" width="49" height="62" as="geometry" />
        </mxCell>
        <mxCell id="UJm0LbWPpGC_FNA0Dgt3-0" value="S_ASSET_XM" style="sketch=0;outlineConnect=0;fontColor=#232F3E;gradientColor=none;fillColor=#3F8624;strokeColor=none;dashed=0;verticalLabelPosition=bottom;verticalAlign=top;align=center;html=1;fontSize=12;fontStyle=0;aspect=fixed;pointerEvents=1;shape=mxgraph.aws4.topic_2;" parent="bZx_TzwmVWrBECJr0aBG-1" vertex="1">
          <mxGeometry x="317" y="384.93" width="22.61" height="33.28" as="geometry" />
        </mxCell>
        <mxCell id="UJm0LbWPpGC_FNA0Dgt3-1" style="rounded=0;orthogonalLoop=1;jettySize=auto;html=1;exitX=1;exitY=0.5;exitDx=0;exitDy=0;" parent="bZx_TzwmVWrBECJr0aBG-1" source="0IvVDsr4xx46r5oWkWUR-11" target="UJm0LbWPpGC_FNA0Dgt3-0" edge="1">
          <mxGeometry relative="1" as="geometry" />
        </mxCell>
      </root>
    </mxGraphModel>
  </diagram>
</mxfile>
